<?xml version="1.0" encoding="UTF-8" standalone="no"?>
<!DOCTYPE svg PUBLIC "-//W3C//DTD SVG 1.1//EN" "http://www.w3.org/Graphics/SVG/1.1/DTD/svg11.dtd">
<svg width="100%" height="100%" viewBox="0 0 789 1098" version="1.1" xmlns="http://www.w3.org/2000/svg" xmlns:xlink="http://www.w3.org/1999/xlink" xml:space="preserve" xmlns:serif="http://www.serif.com/" style="fill-rule:evenodd;clip-rule:evenodd;stroke-linecap:round;stroke-linejoin:round;stroke-miterlimit:1.5;">
    <g transform="matrix(1,0,0,1,-516.846,-438.997)">
        <g>
            <g>
                <g transform="matrix(0.87226,0,0,1.17207,78.8771,-101.971)">
                    <path d="M780.183,570.873L617.483,570.873L651.953,463.325L745.713,463.325L780.183,570.873Z" style="fill:none;stroke:white;stroke-width:4.03px;"/>
                </g>
                <g transform="matrix(0.87226,0,0,1.17207,78.8771,-30.8584)">
                    <path d="M780.183,570.873L617.483,570.873L651.953,463.325L745.713,463.325L780.183,570.873Z" style="fill:none;stroke:white;stroke-width:4.03px;"/>
                </g>
                <g transform="matrix(0.87226,0,0,1.17207,-17.4127,-30.8584)">
                    <path d="M780.183,570.873L617.483,570.873L651.953,463.325L745.713,463.325L780.183,570.873Z" style="fill:none;stroke:white;stroke-width:4.03px;"/>
                </g>
                <g transform="matrix(0.87226,0,0,1.17207,175.167,-30.8584)">
                    <path d="M780.183,570.873L617.483,570.873L651.953,463.325L745.713,463.325L780.183,570.873Z" style="fill:none;stroke:white;stroke-width:4.03px;"/>
                </g>
                <g transform="matrix(0.87226,0,0,0.66122,78.8771,189.661)">
                    <path d="M780.183,570.873L617.483,570.873L651.953,463.325L745.713,463.325L780.183,570.873Z" style="fill:none;stroke:white;stroke-width:5.38px;"/>
                </g>
                <g transform="matrix(0.87226,0,0,0.66122,78.8771,260.774)">
                    <path d="M780.183,570.873L617.483,570.873L651.953,463.325L745.713,463.325L780.183,570.873Z" style="fill:none;stroke:white;stroke-width:5.38px;"/>
                </g>
                <g transform="matrix(0.87226,0,0,0.66122,-17.4127,260.774)">
                    <path d="M780.183,570.873L617.483,570.873L651.953,463.325L745.713,463.325L780.183,570.873Z" style="fill:none;stroke:white;stroke-width:5.38px;"/>
                </g>
                <g transform="matrix(0.87226,0,0,0.66122,175.167,260.774)">
                    <path d="M780.183,570.873L617.483,570.873L651.953,463.325L745.713,463.325L780.183,570.873Z" style="fill:none;stroke:white;stroke-width:5.38px;"/>
                </g>
                <g transform="matrix(1,0,0,0.848229,2.84217e-14,82.903)">
                    <path d="M648.646,487.036L648.646,422.264" style="fill:none;stroke:white;stroke-width:4.49px;"/>
                </g>
                <g transform="matrix(1,0,0,0.848229,2.84217e-14,154.016)">
                    <path d="M648.646,487.036L648.646,422.264" style="fill:none;stroke:white;stroke-width:4.49px;"/>
                </g>
                <g transform="matrix(1,0,0,0.848229,-96.2897,154.016)">
                    <path d="M648.646,487.036L648.646,422.264" style="fill:none;stroke:white;stroke-width:4.49px;"/>
                </g>
                <g transform="matrix(1,0,0,0.848229,96.2897,150.277)">
                    <path d="M648.646,487.036L648.646,422.264" style="fill:none;stroke:white;stroke-width:4.49px;"/>
                </g>
                <g transform="matrix(1,0,0,0.848229,79.3451,83.4916)">
                    <path d="M648.646,487.036L648.646,422.264" style="fill:none;stroke:white;stroke-width:4.49px;"/>
                </g>
                <g transform="matrix(1,0,0,0.848229,79.3451,154.604)">
                    <path d="M648.646,487.036L648.646,422.264" style="fill:none;stroke:white;stroke-width:4.49px;"/>
                </g>
                <g transform="matrix(1,0,0,0.848229,-16.9447,150.866)">
                    <path d="M648.646,487.036L648.646,422.264" style="fill:none;stroke:white;stroke-width:4.49px;"/>
                </g>
                <g transform="matrix(1,0,0,0.848229,175.635,154.604)">
                    <path d="M648.646,487.036L648.646,422.264" style="fill:none;stroke:white;stroke-width:4.49px;"/>
                </g>
                <g transform="matrix(1,0,0,1,-14.5017,2.35095)">
                    <path d="M731.349,448.683L717.164,483.717L709.474,483.717L702.98,465.675L696.046,483.717L688.112,483.717L674.537,448.683L688.624,448.683L686.574,451.319L692.799,470.582L701.222,448.683L707.325,448.683L714.65,470.582L721.998,451.319L719.948,448.683L731.349,448.683Z" style="fill:white;fill-rule:nonzero;"/>
                </g>
                <g transform="matrix(1,0,0,1,-14.5017,73.4636)">
                    <path d="M716.249,448.121L716.249,459.474C710.552,456.951 705.58,455.689 701.332,455.689C698.728,455.689 697.385,456.414 697.303,457.862C697.303,459.327 700.738,461.052 707.606,463.038C714.556,465.528 718.031,469.076 718.031,473.683C718.031,480.942 713.14,484.571 703.358,484.571C699.533,484.571 694.952,483.627 689.613,481.739L686.903,484.693L686.903,472.022C692.453,475.424 697.816,477.125 702.992,477.125C705.759,477.125 707.142,476.336 707.142,474.757C707.142,473.259 704.457,471.721 699.086,470.143C694.61,468.759 691.298,467.018 689.149,464.918C687.489,462.981 686.659,460.694 686.659,458.058C686.659,454.623 688.555,451.946 692.347,450.025C695.049,448.837 698.321,448.243 702.162,448.243C705.075,448.243 708.859,449.032 713.514,450.611L716.249,448.121Z" style="fill:white;fill-rule:nonzero;"/>
                </g>
                <g transform="matrix(1,0,0,1,-110.791,73.4636)">
                    <path d="M694.435,448.658L706.349,448.658L723.61,484.034L708.888,484.034L710.963,481.349L709.376,477.711L692.482,477.711L690.651,481.349L692.726,484.034L679.957,484.034L695.631,451.319L694.435,448.658ZM694.923,471.266L706.715,471.266L700.88,458.619L694.923,471.266Z" style="fill:white;fill-rule:nonzero;"/>
                </g>
                <g transform="matrix(1,0,0,1,81.788,73.4636)">
                    <path d="M684.095,483.985L686.293,481.349L686.293,451.344L684.095,448.683L702.992,448.683C716.078,448.683 722.621,454.615 722.621,466.48C722.621,478.15 716.159,483.985 703.236,483.985L684.095,483.985ZM696.84,476.685L701.869,476.685C708.396,476.685 711.659,473.268 711.659,466.432C711.659,459.498 708.314,456.031 701.625,456.031L696.84,456.031L696.84,476.685Z" style="fill:white;fill-rule:nonzero;"/>
                </g>
            </g>
            <g>
                <g transform="matrix(0.87226,0,0,1.17207,78.8771,412.668)">
                    <path d="M780.183,570.873L617.483,570.873L651.953,463.325L745.713,463.325L780.183,570.873Z" style="fill:none;stroke:white;stroke-width:4.03px;"/>
                </g>
                <g transform="matrix(0.87226,0,0,1.17207,78.8771,483.781)">
                    <path d="M780.183,570.873L617.483,570.873L651.953,463.325L745.713,463.325L780.183,570.873Z" style="fill:none;stroke:white;stroke-width:4.03px;"/>
                </g>
                <g transform="matrix(0.87226,0,0,1.17207,-17.4127,483.781)">
                    <path d="M780.183,570.873L617.483,570.873L651.953,463.325L745.713,463.325L780.183,570.873Z" style="fill:none;stroke:white;stroke-width:4.03px;"/>
                </g>
                <g transform="matrix(0.87226,0,0,1.17207,175.167,483.781)">
                    <path d="M780.183,570.873L617.483,570.873L651.953,463.325L745.713,463.325L780.183,570.873Z" style="fill:none;stroke:white;stroke-width:4.03px;"/>
                </g>
                <g transform="matrix(0.87226,0,0,0.66122,78.8771,704.301)">
                    <path d="M780.183,570.873L617.483,570.873L651.953,463.325L745.713,463.325L780.183,570.873Z" style="fill:none;stroke:white;stroke-width:5.38px;"/>
                </g>
                <g transform="matrix(0.87226,0,0,0.66122,78.8771,775.413)">
                    <path d="M780.183,570.873L617.483,570.873L651.953,463.325L745.713,463.325L780.183,570.873Z" style="fill:none;stroke:white;stroke-width:5.38px;"/>
                </g>
                <g transform="matrix(0.87226,0,0,0.66122,-17.4127,775.413)">
                    <path d="M780.183,570.873L617.483,570.873L651.953,463.325L745.713,463.325L780.183,570.873Z" style="fill:none;stroke:white;stroke-width:5.38px;"/>
                </g>
                <g transform="matrix(0.87226,0,0,0.66122,175.167,775.413)">
                    <path d="M780.183,570.873L617.483,570.873L651.953,463.325L745.713,463.325L780.183,570.873Z" style="fill:none;stroke:white;stroke-width:5.38px;"/>
                </g>
                <g transform="matrix(1,0,0,0.848229,2.84217e-14,597.542)">
                    <path d="M648.646,487.036L648.646,422.264" style="fill:none;stroke:white;stroke-width:4.49px;"/>
                </g>
                <g transform="matrix(1,0,0,0.848229,2.84217e-14,668.655)">
                    <path d="M648.646,487.036L648.646,422.264" style="fill:none;stroke:white;stroke-width:4.49px;"/>
                </g>
                <g transform="matrix(1,0,0,0.848229,-96.2897,668.655)">
                    <path d="M648.646,487.036L648.646,422.264" style="fill:none;stroke:white;stroke-width:4.49px;"/>
                </g>
                <g transform="matrix(1,0,0,0.848229,96.2897,664.916)">
                    <path d="M648.646,487.036L648.646,422.264" style="fill:none;stroke:white;stroke-width:4.49px;"/>
                </g>
                <g transform="matrix(1,0,0,0.848229,79.3451,598.131)">
                    <path d="M648.646,487.036L648.646,422.264" style="fill:none;stroke:white;stroke-width:4.49px;"/>
                </g>
                <g transform="matrix(1,0,0,0.848229,79.3451,669.244)">
                    <path d="M648.646,487.036L648.646,422.264" style="fill:none;stroke:white;stroke-width:4.49px;"/>
                </g>
                <g transform="matrix(1,0,0,0.848229,-16.9447,665.505)">
                    <path d="M648.646,487.036L648.646,422.264" style="fill:none;stroke:white;stroke-width:4.49px;"/>
                </g>
                <g transform="matrix(1,0,0,0.848229,175.635,669.244)">
                    <path d="M648.646,487.036L648.646,422.264" style="fill:none;stroke:white;stroke-width:4.49px;"/>
                </g>
                <g transform="matrix(6.12323e-17,-1,1,6.12323e-17,220.191,1684.4)">
                    <path d="M696.522,460.987L696.522,471.388L694.203,469.825L685.756,469.825L683.461,471.388L683.461,460.987L685.756,462.574L694.203,462.574L696.522,460.987Z" style="fill:white;fill-rule:nonzero;"/>
                    <path d="M695.033,450.514L718.641,462.794L718.641,469.898L695.033,482.203L695.033,472.95L708.021,466.358L695.033,459.791L695.033,450.514Z" style="fill:white;fill-rule:nonzero;"/>
                </g>
                <g transform="matrix(6.12323e-17,1,-1,6.12323e-17,1152.91,353.41)">
                    <path d="M696.522,460.987L696.522,471.388L694.203,469.825L685.756,469.825L683.461,471.388L683.461,460.987L685.756,462.574L694.203,462.574L696.522,460.987Z" style="fill:white;fill-rule:nonzero;"/>
                    <path d="M695.033,450.514L718.641,462.794L718.641,469.898L695.033,482.203L695.033,472.95L708.021,466.358L695.033,459.791L695.033,450.514Z" style="fill:white;fill-rule:nonzero;"/>
                </g>
                <g transform="matrix(1,0,0,1,-110.791,588.103)">
                    <path d="M701.954,450.514L701.954,459.791L688.966,466.358L701.954,472.95L701.954,482.203L678.346,469.898L678.346,462.794L701.954,450.514Z" style="fill:white;fill-rule:nonzero;"/>
                    <path d="M715.968,460.987L715.968,471.388L713.649,469.825L705.201,469.825L702.907,471.388L702.907,460.987L705.201,462.574L713.649,462.574L715.968,460.987Z" style="fill:white;fill-rule:nonzero;"/>
                    <path d="M727.076,460.987L727.076,471.388L724.757,469.825L716.31,469.825L714.015,471.388L714.015,460.987L716.31,462.574L724.757,462.574L727.076,460.987Z" style="fill:white;fill-rule:nonzero;"/>
                </g>
                <g transform="matrix(1,0,0,1,81.788,588.103)">
                    <path d="M696.522,460.987L696.522,471.388L694.203,469.825L685.756,469.825L683.461,471.388L683.461,460.987L685.756,462.574L694.203,462.574L696.522,460.987Z" style="fill:white;fill-rule:nonzero;"/>
                    <path d="M695.033,450.514L718.641,462.794L718.641,469.898L695.033,482.203L695.033,472.95L708.021,466.358L695.033,459.791L695.033,450.514Z" style="fill:white;fill-rule:nonzero;"/>
                </g>
            </g>
            <g transform="matrix(1,0,0,1,3.52975,0)">
                <g transform="matrix(0.87226,0,0,1.17207,-23.206,118.804)">
                    <path d="M1024.6,570.873L617.483,570.873L651.953,463.325L990.133,463.325L1024.6,570.873Z" style="fill:none;stroke:white;stroke-width:4.03px;"/>
                </g>
                <g transform="matrix(0.87226,0,0,0.66122,-23.206,410.436)">
                    <path d="M1024.6,570.873L617.483,570.873L651.953,463.325L990.133,463.325L1024.6,570.873Z" style="fill:none;stroke:white;stroke-width:5.38px;"/>
                </g>
                <g transform="matrix(1,0,0,0.848229,-102.083,303.678)">
                    <path d="M648.646,487.036L648.646,422.264" style="fill:none;stroke:white;stroke-width:4.49px;"/>
                </g>
                <g transform="matrix(1,0,0,0.848229,191.561,303.678)">
                    <path d="M648.646,487.036L648.646,422.264" style="fill:none;stroke:white;stroke-width:4.49px;"/>
                </g>
                <g transform="matrix(1,0,0,1,-9.96146,222.918)">
                    <path d="M642.103,448.121L642.103,459.474C636.407,456.951 631.434,455.689 627.186,455.689C624.582,455.689 623.239,456.414 623.158,457.862C623.158,459.327 626.592,461.052 633.461,463.038C640.411,465.528 643.886,469.076 643.886,473.683C643.886,480.942 638.995,484.571 629.213,484.571C625.388,484.571 620.806,483.627 615.468,481.739L612.758,484.693L612.758,472.022C618.308,475.424 623.671,477.125 628.846,477.125C631.613,477.125 632.997,476.336 632.997,474.757C632.997,473.259 630.311,471.721 624.94,470.143C620.464,468.759 617.152,467.018 615.004,464.918C613.344,462.981 612.513,460.694 612.513,458.058C612.513,454.623 614.41,451.946 618.202,450.025C620.904,448.837 624.175,448.243 628.016,448.243C630.93,448.243 634.714,449.032 639.369,450.611L642.103,448.121Z" style="fill:white;fill-rule:nonzero;"/>
                    <path d="M647.377,448.683L669.496,448.683C678.48,448.683 682.972,452.857 682.972,461.207C682.972,469.312 678.407,473.365 669.276,473.365L659.779,473.365L659.779,481.373L661.952,484.034L647.377,484.034L649.452,481.373L649.452,451.588L647.377,448.683ZM659.779,455.982L659.779,466.676L666.932,466.676C670.562,466.676 672.385,464.893 672.401,461.329C672.401,457.765 670.538,455.982 666.81,455.982L659.779,455.982Z" style="fill:white;fill-rule:nonzero;"/>
                    <path d="M693.3,448.658L705.214,448.658L722.474,484.034L707.753,484.034L709.828,481.349L708.241,477.711L691.346,477.711L689.515,481.349L691.591,484.034L678.822,484.034L694.496,451.319L693.3,448.658ZM693.788,471.266L705.58,471.266L699.745,458.619L693.788,471.266Z" style="fill:white;fill-rule:nonzero;"/>
                    <path d="M756.556,481.544C752.585,483.595 748.02,484.62 742.86,484.62C728.733,484.62 721.669,478.46 721.669,466.139C721.669,454.273 728.651,448.341 742.616,448.341C746.148,448.341 749.965,449.024 754.066,450.392L756.556,448.145L756.556,459.742C752.048,457.171 747.417,455.885 742.665,455.885C735.975,455.885 732.631,459.449 732.631,466.578C732.631,473.593 735.967,477.101 742.64,477.101C748.972,477.101 753.61,476.287 756.556,474.659L756.556,481.544Z" style="fill:white;fill-rule:nonzero;"/>
                    <path d="M760.072,448.683L793.324,448.683L793.324,458.155L790.541,455.958L772.572,455.958L772.572,462.892L783.998,462.892L786.659,460.694L786.659,471.998L783.998,469.801L772.572,469.801L772.572,476.734L790.541,476.734L793.324,474.537L793.324,484.01L760.072,484.01L762.269,481.349L762.269,451.344L760.072,448.683Z" style="fill:white;fill-rule:nonzero;"/>
                </g>
            </g>
            <g transform="matrix(1,0,0,1,3.52975,1.4119)">
                <g transform="matrix(0.87226,0,0,1.83329,-23.206,330.878)">
                    <path d="M1024.6,570.873L617.483,570.873L651.953,463.325L990.133,463.325L1024.6,570.873Z" style="fill:none;stroke:white;stroke-width:2.9px;"/>
                </g>
                <g transform="matrix(0.87226,0,0,0.66122,-23.206,999.982)">
                    <path d="M1024.6,570.873L617.483,570.873L651.953,463.325L990.133,463.325L1024.6,570.873Z" style="fill:none;stroke:white;stroke-width:5.38px;"/>
                </g>
                <g transform="matrix(2.55476,0,0,1.94613,-1110.57,358.507)">
                    <path d="M648.646,487.036L648.646,422.264" style="fill:none;stroke:white;stroke-width:1.83px;"/>
                </g>
                <g transform="matrix(2.29434,0,0,1.94613,-648.01,358.507)">
                    <path d="M648.646,487.036L648.646,422.264" style="fill:none;stroke:white;stroke-width:1.96px;"/>
                </g>
                <g transform="matrix(1,0,0,1,-9.96146,770.296)">
                    <path d="M608.217,448.683L641.469,448.683L641.469,458.155L638.685,455.958L620.717,455.958L620.717,462.892L632.142,462.892L634.803,460.694L634.803,471.998L632.142,469.801L620.717,469.801L620.717,476.734L638.685,476.734L641.469,474.537L641.469,484.01L608.217,484.01L610.414,481.349L610.414,451.344L608.217,448.683Z" style="fill:white;fill-rule:nonzero;"/>
                    <path d="M644.496,448.683L655.531,448.683L673.622,469.068L673.622,451.222L671.571,448.683L683.949,448.683L681.776,451.344L681.776,484.01L673.866,484.01L654.701,463.258L654.701,481.349L656.874,484.01L644.496,484.01L646.571,481.397L646.571,451.515L644.496,448.683Z" style="fill:white;fill-rule:nonzero;"/>
                    <path d="M722.45,448.683L722.45,459.181L719.886,457.105L710.023,457.105L710.023,481.471L712.098,484.01L697.279,484.01L699.476,481.349L699.476,457.105L689.662,457.105L687.123,459.181L687.123,448.683L722.45,448.683Z" style="fill:white;fill-rule:nonzero;"/>
                    <path d="M725.99,448.683L759.242,448.683L759.242,458.155L756.459,455.958L738.49,455.958L738.49,462.892L749.916,462.892L752.577,460.694L752.577,471.998L749.916,469.801L738.49,469.801L738.49,476.734L756.459,476.734L759.242,474.537L759.242,484.01L725.99,484.01L728.187,481.349L728.187,451.344L725.99,448.683Z" style="fill:white;fill-rule:nonzero;"/>
                    <path d="M761.586,448.683L783.705,448.683C792.689,448.683 797.181,452.247 797.181,459.376C797.181,465.203 794.512,468.767 789.174,470.069L798.768,484.034L783.095,484.034L785.267,481.373L778.602,471.412L773.988,471.412L773.988,481.373L776.161,484.034L761.586,484.034L763.661,481.617L763.661,451.075L761.586,448.683ZM773.988,455.982L773.988,464.723L781.141,464.723C784.771,464.723 786.594,463.225 786.61,460.23C786.61,457.398 784.747,455.982 781.019,455.982L773.988,455.982Z" style="fill:white;fill-rule:nonzero;"/>
                </g>
            </g>
            <g transform="matrix(1,0,0,1,16.9429,602.167)">
                <g transform="matrix(0.87226,0,0,1.17207,-36.6191,263.524)">
                    <path d="M901.567,570.873L617.483,570.873L651.953,463.325L867.096,463.325L901.567,570.873Z" style="fill:none;stroke:white;stroke-width:4.03px;"/>
                </g>
                <g transform="matrix(0.87226,0,0,0.66122,-36.6191,555.156)">
                    <path d="M901.567,570.873L617.483,570.873L651.953,463.325L867.096,463.325L901.567,570.873Z" style="fill:none;stroke:white;stroke-width:5.38px;"/>
                </g>
                <g transform="matrix(1,0,0,0.848229,-115.496,448.398)">
                    <path d="M648.646,487.036L648.646,422.264" style="fill:none;stroke:white;stroke-width:4.49px;"/>
                </g>
                <g transform="matrix(1,0,0,0.848229,71.0691,448.398)">
                    <path d="M648.646,487.036L648.646,422.264" style="fill:none;stroke:white;stroke-width:4.49px;"/>
                </g>
                <g transform="matrix(1,0,0,1,-75.3327,367.638)">
                    <path d="M649.208,448.683L682.46,448.683L682.46,458.155L679.677,455.958L661.708,455.958L661.708,462.892L673.134,462.892L675.795,460.694L675.795,471.998L673.134,469.801L661.708,469.801L661.708,476.734L679.677,476.734L682.46,474.537L682.46,484.01L649.208,484.01L651.405,481.349L651.405,451.344L649.208,448.683Z" style="fill:white;fill-rule:nonzero;"/>
                    <path d="M714.906,448.121L714.906,459.474C709.209,456.951 704.237,455.689 699.989,455.689C697.385,455.689 696.042,456.414 695.961,457.862C695.961,459.327 699.395,461.052 706.263,463.038C713.213,465.528 716.688,469.076 716.688,473.683C716.688,480.942 711.797,484.571 702.015,484.571C698.191,484.571 693.609,483.627 688.27,481.739L685.56,484.693L685.56,472.022C691.11,475.424 696.473,477.125 701.649,477.125C704.416,477.125 705.8,476.336 705.8,474.757C705.8,473.259 703.114,471.721 697.743,470.143C693.267,468.759 689.955,467.018 687.806,464.918C686.146,462.981 685.316,460.694 685.316,458.058C685.316,454.623 687.212,451.946 691.005,450.025C693.706,448.837 696.978,448.243 700.819,448.243C703.733,448.243 707.517,449.032 712.172,450.611L714.906,448.121Z" style="fill:white;fill-rule:nonzero;"/>
                    <path d="M756.215,481.544C752.243,483.595 747.678,484.62 742.518,484.62C728.391,484.62 721.327,478.46 721.327,466.139C721.327,454.273 728.309,448.341 742.274,448.341C745.806,448.341 749.623,449.024 753.724,450.392L756.215,448.145L756.215,459.742C751.706,457.171 747.076,455.885 742.323,455.885C735.634,455.885 732.289,459.449 732.289,466.578C732.289,473.593 735.625,477.101 742.299,477.101C748.63,477.101 753.269,476.287 756.215,474.659L756.215,481.544Z" style="fill:white;fill-rule:nonzero;"/>
                </g>
            </g>
            <g transform="matrix(1,0,0,1,-51.1815,5.27452)">
                <path d="M977.507,540.633L967.009,520.833L967.009,537.825L969.304,540.584L956.706,540.584C956.706,540.551 957.544,539.567 959.221,537.63L959.221,507.796L957.292,505.232L969.572,505.232L980.925,526.619L991.813,505.232L1004.61,505.232L1002.24,507.967L1002.24,538.484L1004.07,540.633L989.689,540.633L991.935,538.167L991.935,521.834L982.414,540.633L977.507,540.633Z" style="fill:white;fill-rule:nonzero;"/>
                <path d="M1024.77,504.671C1038.09,504.671 1044.74,510.791 1044.74,523.03C1044.74,535.107 1038.21,541.146 1025.14,541.146C1011.48,541.146 1004.65,534.977 1004.65,522.64C1004.65,510.66 1011.36,504.671 1024.77,504.671ZM1015.52,522.566C1015.52,529.972 1018.69,533.675 1025.04,533.675C1030.93,533.675 1033.88,530.127 1033.88,523.03C1033.88,515.771 1030.79,512.142 1024.6,512.142C1018.55,512.142 1015.52,515.617 1015.52,522.566Z" style="fill:white;fill-rule:nonzero;"/>
                <path d="M1044.89,505.232L1059.46,505.232L1057.41,507.869L1065.84,527.132L1074.75,507.772L1072.58,505.232L1084.98,505.232L1084.98,505.355L1068.6,540.267L1061.39,540.267L1044.89,505.232Z" style="fill:white;fill-rule:nonzero;"/>
                <path d="M1087.42,505.232L1120.67,505.232L1120.67,514.705L1117.89,512.508L1099.92,512.508L1099.92,519.441L1111.35,519.441L1114.01,517.244L1114.01,528.548L1111.35,526.351L1099.92,526.351L1099.92,533.284L1117.89,533.284L1120.67,531.087L1120.67,540.56L1087.42,540.56L1089.62,537.898L1089.62,507.894L1087.42,505.232Z" style="fill:white;fill-rule:nonzero;"/>
                <path d="M1143.33,540.633L1132.83,520.833L1132.83,537.825L1135.12,540.584L1122.53,540.584C1122.53,540.551 1123.36,539.567 1125.04,537.63L1125.04,507.796L1123.11,505.232L1135.39,505.232L1146.75,526.619L1157.63,505.232L1170.43,505.232L1168.06,507.967L1168.06,538.484L1169.89,540.633L1155.51,540.633L1157.76,538.167L1157.76,521.834L1148.23,540.633L1143.33,540.633Z" style="fill:white;fill-rule:nonzero;"/>
                <path d="M1171.96,505.232L1205.22,505.232L1205.22,514.705L1202.43,512.508L1184.46,512.508L1184.46,519.441L1195.89,519.441L1198.55,517.244L1198.55,528.548L1195.89,526.351L1184.46,526.351L1184.46,533.284L1202.43,533.284L1205.22,531.087L1205.22,540.56L1171.96,540.56L1174.16,537.898L1174.16,507.894L1171.96,505.232Z" style="fill:white;fill-rule:nonzero;"/>
                <path d="M1208.24,505.232L1219.28,505.232L1237.37,525.618L1237.37,507.772L1235.32,505.232L1247.7,505.232L1245.52,507.894L1245.52,540.56L1237.61,540.56L1218.45,519.808L1218.45,537.898L1220.62,540.56L1208.24,540.56L1210.32,537.947L1210.32,508.064L1208.24,505.232Z" style="fill:white;fill-rule:nonzero;"/>
                <path d="M1286.2,505.232L1286.2,515.73L1283.63,513.655L1273.77,513.655L1273.77,538.021L1275.85,540.56L1261.03,540.56L1263.22,537.898L1263.22,513.655L1253.41,513.655L1250.87,515.73L1250.87,505.232L1286.2,505.232Z" style="fill:white;fill-rule:nonzero;"/>
            </g>
            <g transform="matrix(1,0,0,1,-51.1815,183.736)">
                <path d="M987.297,504.671L987.297,516.023C981.6,513.501 976.628,512.239 972.38,512.239C969.776,512.239 968.433,512.964 968.351,514.412C968.351,515.877 971.786,517.602 978.654,519.588C985.604,522.078 989.079,525.626 989.079,530.232C989.079,537.492 984.188,541.121 974.406,541.121C970.581,541.121 966,540.177 960.661,538.289L957.951,541.243L957.951,528.572C963.501,531.974 968.864,533.675 974.04,533.675C976.807,533.675 978.19,532.885 978.19,531.307C978.19,529.809 975.505,528.271 970.134,526.692C965.658,525.309 962.346,523.567 960.197,521.468C958.537,519.531 957.707,517.244 957.707,514.607C957.707,511.173 959.603,508.496 963.395,506.575C966.097,505.387 969.369,504.793 973.21,504.793C976.123,504.793 979.907,505.582 984.562,507.161L987.297,504.671Z" style="fill:white;fill-rule:nonzero;"/>
                <path d="M1004.85,526.692L1004.85,538.021L1006.93,540.56L992.106,540.56L994.304,537.898L994.304,507.894L992.106,505.232L1006.93,505.232L1004.85,507.772L1004.85,518.514L1021.65,518.514L1021.65,507.894L1019.45,505.232L1034.27,505.232L1032.19,507.772L1032.19,538.021L1034.27,540.56L1019.45,540.56L1021.65,537.898L1021.65,526.692L1004.85,526.692Z" style="fill:white;fill-rule:nonzero;"/>
                <path d="M1054.95,504.671C1068.26,504.671 1074.92,510.791 1074.92,523.03C1074.92,535.107 1068.38,541.146 1055.31,541.146C1041.66,541.146 1034.83,534.977 1034.83,522.64C1034.83,510.66 1041.54,504.671 1054.95,504.671ZM1045.69,522.566C1045.69,529.972 1048.87,533.675 1055.22,533.675C1061.11,533.675 1064.06,530.127 1064.06,523.03C1064.06,515.771 1060.96,512.142 1054.78,512.142C1048.72,512.142 1045.69,515.617 1045.69,522.566Z" style="fill:white;fill-rule:nonzero;"/>
                <path d="M1096.94,504.671C1110.25,504.671 1116.91,510.791 1116.91,523.03C1116.91,535.107 1110.38,541.146 1097.31,541.146C1083.65,541.146 1076.82,534.977 1076.82,522.64C1076.82,510.66 1083.53,504.671 1096.94,504.671ZM1087.69,522.566C1087.69,529.972 1090.86,533.675 1097.21,533.675C1103.1,533.675 1106.05,530.127 1106.05,523.03C1106.05,515.771 1102.95,512.142 1096.77,512.142C1090.71,512.142 1087.69,515.617 1087.69,522.566Z" style="fill:white;fill-rule:nonzero;"/>
                <path d="M1154.53,505.232L1154.53,515.73L1151.97,513.655L1142.11,513.655L1142.11,538.021L1144.18,540.56L1129.36,540.56L1131.56,537.898L1131.56,513.655L1121.75,513.655L1119.21,515.73L1119.21,505.232L1154.53,505.232Z" style="fill:white;fill-rule:nonzero;"/>
            </g>
            <g transform="matrix(1,0,0,1,-51.1815,335.516)">
                <path d="M957.707,505.232L972.526,505.232L970.451,507.772L970.451,538.021L972.526,540.56L957.707,540.56L959.904,537.898L959.904,507.894L957.707,505.232Z" style="fill:white;fill-rule:nonzero;"/>
                <path d="M976.262,505.232L987.297,505.232L1005.39,525.618L1005.39,507.772L1003.34,505.232L1015.72,505.232L1013.54,507.894L1013.54,540.56L1005.63,540.56L986.467,519.808L986.467,537.898L988.64,540.56L976.262,540.56L978.337,537.947L978.337,508.064L976.262,505.232Z" style="fill:white;fill-rule:nonzero;"/>
                <path d="M1054.22,505.232L1054.22,515.73L1051.65,513.655L1041.79,513.655L1041.79,538.021L1043.86,540.56L1029.05,540.56L1031.24,537.898L1031.24,513.655L1021.43,513.655L1018.89,515.73L1018.89,505.232L1054.22,505.232Z" style="fill:white;fill-rule:nonzero;"/>
                <path d="M1057.76,505.232L1091.01,505.232L1091.01,514.705L1088.22,512.508L1070.26,512.508L1070.26,519.441L1081.68,519.441L1084.34,517.244L1084.34,528.548L1081.68,526.351L1070.26,526.351L1070.26,533.284L1088.22,533.284L1091.01,531.087L1091.01,540.56L1057.76,540.56L1059.95,537.898L1059.95,507.894L1057.76,505.232Z" style="fill:white;fill-rule:nonzero;"/>
                <path d="M1093.35,505.232L1115.47,505.232C1124.45,505.232 1128.95,508.797 1128.95,515.926C1128.95,521.753 1126.28,525.317 1120.94,526.619L1130.53,540.584L1114.86,540.584L1117.03,537.923L1110.37,527.962L1105.75,527.962L1105.75,537.923L1107.93,540.584L1093.35,540.584L1095.43,538.167L1095.43,507.625L1093.35,505.232ZM1105.75,512.532L1105.75,521.272L1112.91,521.272C1116.54,521.272 1118.36,519.775 1118.38,516.78C1118.38,513.948 1116.51,512.532 1112.79,512.532L1105.75,512.532Z" style="fill:white;fill-rule:nonzero;"/>
                <path d="M1144.04,505.208L1155.95,505.208L1173.21,540.584L1158.49,540.584L1160.56,537.898L1158.98,534.261L1142.08,534.261L1140.25,537.898L1142.33,540.584L1129.56,540.584L1145.23,507.869L1144.04,505.208ZM1144.52,527.815L1156.32,527.815L1150.48,515.169L1144.52,527.815Z" style="fill:white;fill-rule:nonzero;"/>
                <path d="M1209.81,538.094C1205.84,540.145 1201.27,541.17 1196.11,541.17C1181.98,541.17 1174.92,535.009 1174.92,522.688C1174.92,510.823 1181.9,504.891 1195.87,504.891C1199.4,504.891 1203.21,505.574 1207.32,506.941L1209.81,504.695L1209.81,516.292C1205.3,513.72 1200.67,512.435 1195.91,512.435C1189.23,512.435 1185.88,515.999 1185.88,523.128C1185.88,530.143 1189.22,533.65 1195.89,533.65C1202.22,533.65 1206.86,532.837 1209.81,531.209L1209.81,538.094Z" style="fill:white;fill-rule:nonzero;"/>
                <path d="M1247.65,505.232L1247.65,515.73L1245.09,513.655L1235.22,513.655L1235.22,538.021L1237.3,540.56L1222.48,540.56L1224.67,537.898L1224.67,513.655L1214.86,513.655L1212.32,515.73L1212.32,505.232L1247.65,505.232Z" style="fill:white;fill-rule:nonzero;"/>
            </g>
            <g transform="matrix(1,0,0,1,-51.1815,948.812)">
                <path d="M957.194,505.232L979.313,505.232C988.298,505.232 992.79,509.407 992.79,517.757C992.79,525.862 988.224,529.915 979.094,529.915L969.597,529.915L969.597,537.923L971.769,540.584L957.194,540.584L959.269,537.923L959.269,508.138L957.194,505.232ZM969.597,512.532L969.597,523.226L976.75,523.226C980.379,523.226 982.202,521.443 982.219,517.879C982.219,514.314 980.355,512.532 976.628,512.532L969.597,512.532Z" style="fill:white;fill-rule:nonzero;"/>
                <path d="M1003.12,505.208L1015.03,505.208L1032.29,540.584L1017.57,540.584L1019.64,537.898L1018.06,534.261L1001.16,534.261L999.333,537.898L1001.41,540.584L988.64,540.584L1004.31,507.869L1003.12,505.208ZM1003.61,527.815L1015.4,527.815L1009.56,515.169L1003.61,527.815Z" style="fill:white;fill-rule:nonzero;"/>
                <path d="M1033.54,505.232L1048.16,505.232L1045.99,507.894L1045.99,527.107C1045.99,531.372 1048.4,533.504 1053.21,533.504C1058.07,533.504 1060.49,531.412 1060.49,527.23L1060.49,507.894L1058.44,505.232L1073.04,505.232L1070.87,507.894L1070.87,527.23C1070.87,536.491 1064.99,541.121 1053.24,541.121C1041.47,541.121 1035.59,536.417 1035.59,527.01L1035.59,507.772L1033.54,505.232Z" style="fill:white;fill-rule:nonzero;"/>
                <path d="M1103.75,504.671L1103.75,516.023C1098.06,513.501 1093.08,512.239 1088.84,512.239C1086.23,512.239 1084.89,512.964 1084.81,514.412C1084.81,515.877 1088.24,517.602 1095.11,519.588C1102.06,522.078 1105.53,525.626 1105.53,530.232C1105.53,537.492 1100.64,541.121 1090.86,541.121C1087.04,541.121 1082.45,540.177 1077.12,538.289L1074.41,541.243L1074.41,528.572C1079.96,531.974 1085.32,533.675 1090.5,533.675C1093.26,533.675 1094.64,532.885 1094.64,531.307C1094.64,529.809 1091.96,528.271 1086.59,526.692C1082.11,525.309 1078.8,523.567 1076.65,521.468C1074.99,519.531 1074.16,517.244 1074.16,514.607C1074.16,511.173 1076.06,508.496 1079.85,506.575C1082.55,505.387 1085.82,504.793 1089.66,504.793C1092.58,504.793 1096.36,505.582 1101.02,507.161L1103.75,504.671Z" style="fill:white;fill-rule:nonzero;"/>
                <path d="M1109.66,505.232L1142.91,505.232L1142.91,514.705L1140.13,512.508L1122.16,512.508L1122.16,519.441L1133.59,519.441L1136.25,517.244L1136.25,528.548L1133.59,526.351L1122.16,526.351L1122.16,533.284L1140.13,533.284L1142.91,531.087L1142.91,540.56L1109.66,540.56L1111.86,537.898L1111.86,507.894L1109.66,505.232Z" style="fill:white;fill-rule:nonzero;"/>
                <path d="M1178.07,540.633L1167.57,520.833L1167.57,537.825L1169.87,540.584L1157.27,540.584C1157.27,540.551 1158.11,539.567 1159.78,537.63L1159.78,507.796L1157.85,505.232L1170.13,505.232L1181.49,526.619L1192.38,505.232L1205.17,505.232L1202.8,507.967L1202.8,538.484L1204.63,540.633L1190.25,540.633L1192.5,538.167L1192.5,521.834L1182.98,540.633L1178.07,540.633Z" style="fill:white;fill-rule:nonzero;"/>
                <path d="M1206.71,505.232L1239.96,505.232L1239.96,514.705L1237.17,512.508L1219.21,512.508L1219.21,519.441L1230.63,519.441L1233.29,517.244L1233.29,528.548L1230.63,526.351L1219.21,526.351L1219.21,533.284L1237.17,533.284L1239.96,531.087L1239.96,540.56L1206.71,540.56L1208.9,537.898L1208.9,507.894L1206.71,505.232Z" style="fill:white;fill-rule:nonzero;"/>
                <path d="M1242.99,505.232L1254.02,505.232L1272.11,525.618L1272.11,507.772L1270.06,505.232L1282.44,505.232L1280.27,507.894L1280.27,540.56L1272.36,540.56L1253.19,519.808L1253.19,537.898L1255.36,540.56L1242.99,540.56L1245.06,537.947L1245.06,508.064L1242.99,505.232Z" style="fill:white;fill-rule:nonzero;"/>
                <path d="M1286.66,505.232L1301.29,505.232L1299.11,507.894L1299.11,527.107C1299.11,531.372 1301.52,533.504 1306.34,533.504C1311.19,533.504 1313.62,531.412 1313.62,527.23L1313.62,507.894L1311.56,505.232L1326.16,505.232L1323.99,507.894L1323.99,527.23C1323.99,536.491 1318.12,541.121 1306.36,541.121C1294.6,541.121 1288.71,536.417 1288.71,527.01L1288.71,507.772L1286.66,505.232Z" style="fill:white;fill-rule:nonzero;"/>
            </g>
            <g transform="matrix(1,0,0,1,-51.1815,512.839)">
                <path d="M968.132,505.208L980.046,505.208L997.307,540.584L982.585,540.584L984.66,537.898L983.073,534.261L966.179,534.261L964.348,537.898L966.423,540.584L953.654,540.584L969.328,507.869L968.132,505.208ZM968.62,527.815L980.412,527.815L974.577,515.169L968.62,527.815Z" style="fill:white;fill-rule:nonzero;"/>
                <path d="M998.381,505.232L1013.2,505.232L1011.12,507.772L1011.12,538.021L1013.2,540.56L998.381,540.56L1000.58,537.898L1000.58,507.894L998.381,505.232Z" style="fill:white;fill-rule:nonzero;"/>
                <path d="M1036.56,540.633L1026.07,520.833L1026.07,537.825L1028.36,540.584L1015.76,540.584C1015.76,540.551 1016.6,539.567 1018.28,537.63L1018.28,507.796L1016.35,505.232L1028.63,505.232L1039.98,526.619L1050.87,505.232L1063.66,505.232L1061.3,507.967L1061.3,538.484L1063.13,540.633L1048.75,540.633L1050.99,538.167L1050.99,521.834L1041.47,540.633L1036.56,540.633Z" style="fill:white;fill-rule:nonzero;"/>
                <path d="M1074.6,538.753L1076.07,540.56L1062.69,540.56L1087.37,507.283L1085.9,505.281L1099.28,505.281L1074.6,538.753Z" style="fill:white;fill-rule:nonzero;"/>
                <path d="M1122.84,540.633L1112.35,520.833L1112.35,537.825L1114.64,540.584L1102.04,540.584C1102.04,540.551 1102.88,539.567 1104.56,537.63L1104.56,507.796L1102.63,505.232L1114.91,505.232L1126.26,526.619L1137.15,505.232L1149.94,505.232L1147.58,507.967L1147.58,538.484L1149.41,540.633L1135.03,540.633L1137.27,538.167L1137.27,521.834L1127.75,540.633L1122.84,540.633Z" style="fill:white;fill-rule:nonzero;"/>
                <path d="M1151.48,505.232L1184.73,505.232L1184.73,514.705L1181.95,512.508L1163.98,512.508L1163.98,519.441L1175.41,519.441L1178.07,517.244L1178.07,528.548L1175.41,526.351L1163.98,526.351L1163.98,533.284L1181.95,533.284L1184.73,531.087L1184.73,540.56L1151.48,540.56L1153.68,537.898L1153.68,507.894L1151.48,505.232Z" style="fill:white;fill-rule:nonzero;"/>
                <path d="M1187.76,505.232L1198.8,505.232L1216.89,525.618L1216.89,507.772L1214.84,505.232L1227.21,505.232L1225.04,507.894L1225.04,540.56L1217.13,540.56L1197.97,519.808L1197.97,537.898L1200.14,540.56L1187.76,540.56L1189.84,537.947L1189.84,508.064L1187.76,505.232Z" style="fill:white;fill-rule:nonzero;"/>
                <path d="M1231.44,505.232L1246.06,505.232L1243.89,507.894L1243.89,527.107C1243.89,531.372 1246.3,533.504 1251.12,533.504C1255.96,533.504 1258.39,531.412 1258.39,527.23L1258.39,507.894L1256.34,505.232L1270.94,505.232L1268.77,507.894L1268.77,527.23C1268.77,536.491 1262.89,541.121 1251.14,541.121C1239.37,541.121 1233.49,536.417 1233.49,527.01L1233.49,507.772L1231.44,505.232Z" style="fill:white;fill-rule:nonzero;"/>
            </g>
            <g transform="matrix(1,0,0,1,-51.1815,736.979)">
                <path d="M977.507,540.633L967.009,520.833L967.009,537.825L969.304,540.584L956.706,540.584C956.706,540.551 957.544,539.567 959.221,537.63L959.221,507.796L957.292,505.232L969.572,505.232L980.925,526.619L991.813,505.232L1004.61,505.232L1002.24,507.967L1002.24,538.484L1004.07,540.633L989.689,540.633L991.935,538.167L991.935,521.834L982.414,540.633L977.507,540.633Z" style="fill:white;fill-rule:nonzero;"/>
                <path d="M1006.14,505.232L1039.4,505.232L1039.4,514.705L1036.61,512.508L1018.64,512.508L1018.64,519.441L1030.07,519.441L1032.73,517.244L1032.73,528.548L1030.07,526.351L1018.64,526.351L1018.64,533.284L1036.61,533.284L1039.4,531.087L1039.4,540.56L1006.14,540.56L1008.34,537.898L1008.34,507.894L1006.14,505.232Z" style="fill:white;fill-rule:nonzero;"/>
                <path d="M1042.42,505.232L1053.46,505.232L1071.55,525.618L1071.55,507.772L1069.5,505.232L1081.88,505.232L1079.7,507.894L1079.7,540.56L1071.79,540.56L1052.63,519.808L1052.63,537.898L1054.8,540.56L1042.42,540.56L1044.5,537.947L1044.5,508.064L1042.42,505.232Z" style="fill:white;fill-rule:nonzero;"/>
                <path d="M1086.1,505.232L1100.72,505.232L1098.55,507.894L1098.55,527.107C1098.55,531.372 1100.96,533.504 1105.78,533.504C1110.63,533.504 1113.05,531.412 1113.05,527.23L1113.05,507.894L1111,505.232L1125.6,505.232L1123.43,507.894L1123.43,527.23C1123.43,536.491 1117.55,541.121 1105.8,541.121C1094.04,541.121 1088.15,536.417 1088.15,527.01L1088.15,507.772L1086.1,505.232Z" style="fill:white;fill-rule:nonzero;"/>
                <path d="M1168.82,504.671L1168.82,516.023C1163.12,513.501 1158.15,512.239 1153.9,512.239C1151.29,512.239 1149.95,512.964 1149.87,514.412C1149.87,515.877 1153.3,517.602 1160.17,519.588C1167.12,522.078 1170.6,525.626 1170.6,530.232C1170.6,537.492 1165.71,541.121 1155.92,541.121C1152.1,541.121 1147.52,540.177 1142.18,538.289L1139.47,541.243L1139.47,528.572C1145.02,531.974 1150.38,533.675 1155.56,533.675C1158.33,533.675 1159.71,532.885 1159.71,531.307C1159.71,529.809 1157.02,528.271 1151.65,526.692C1147.18,525.309 1143.86,523.567 1141.72,521.468C1140.06,519.531 1139.23,517.244 1139.23,514.607C1139.23,511.173 1141.12,508.496 1144.91,506.575C1147.62,505.387 1150.89,504.793 1154.73,504.793C1157.64,504.793 1161.43,505.582 1166.08,507.161L1168.82,504.671Z" style="fill:white;fill-rule:nonzero;"/>
                <path d="M1174.72,505.232L1207.98,505.232L1207.98,514.705L1205.19,512.508L1187.22,512.508L1187.22,519.441L1198.65,519.441L1201.31,517.244L1201.31,528.548L1198.65,526.351L1187.22,526.351L1187.22,533.284L1205.19,533.284L1207.98,531.087L1207.98,540.56L1174.72,540.56L1176.92,537.898L1176.92,507.894L1174.72,505.232Z" style="fill:white;fill-rule:nonzero;"/>
                <path d="M1211.59,505.232L1226.16,505.232L1224.11,507.894L1224.11,533.284L1240.74,533.284L1243.79,531.111L1243.79,540.584L1211.59,540.584L1213.79,537.923L1213.79,507.894L1211.59,505.232Z" style="fill:white;fill-rule:nonzero;"/>
                <path d="M1247.43,505.232L1280.68,505.232L1280.68,514.705L1277.9,512.508L1259.93,512.508L1259.93,519.441L1271.35,519.441L1274.02,517.244L1274.02,528.548L1271.35,526.351L1259.93,526.351L1259.93,533.284L1277.9,533.284L1280.68,531.087L1280.68,540.56L1247.43,540.56L1249.63,537.898L1249.63,507.894L1247.43,505.232Z" style="fill:white;fill-rule:nonzero;"/>
                <path d="M1319.06,538.094C1315.09,540.145 1310.52,541.17 1305.36,541.17C1291.24,541.17 1284.17,535.009 1284.17,522.688C1284.17,510.823 1291.15,504.891 1305.12,504.891C1308.65,504.891 1312.47,505.574 1316.57,506.941L1319.06,504.695L1319.06,516.292C1314.55,513.72 1309.92,512.435 1305.17,512.435C1298.48,512.435 1295.13,515.999 1295.13,523.128C1295.13,530.143 1298.47,533.65 1305.14,533.65C1311.48,533.65 1316.11,532.837 1319.06,531.209L1319.06,538.094Z" style="fill:white;fill-rule:nonzero;"/>
                <path d="M1356.9,505.232L1356.9,515.73L1354.34,513.655L1344.47,513.655L1344.47,538.021L1346.55,540.56L1331.73,540.56L1333.93,537.898L1333.93,513.655L1324.11,513.655L1321.57,515.73L1321.57,505.232L1356.9,505.232Z" style="fill:white;fill-rule:nonzero;"/>
            </g>
            <g transform="matrix(1,0,0,1,0,11.2953)">
                <g transform="matrix(0.87226,0,0,1.17207,-17.4127,254.17)">
                    <path d="M780.183,570.873L617.483,570.873L651.953,463.325L745.713,463.325L780.183,570.873Z" style="fill:none;stroke:white;stroke-width:4.03px;"/>
                </g>
                <g transform="matrix(0.87226,0,0,0.66122,-17.4127,545.803)">
                    <path d="M780.183,570.873L617.483,570.873L651.953,463.325L745.713,463.325L780.183,570.873Z" style="fill:none;stroke:white;stroke-width:5.38px;"/>
                </g>
                <g transform="matrix(1,0,0,0.848229,-96.2897,439.044)">
                    <path d="M648.646,487.036L648.646,422.264" style="fill:none;stroke:white;stroke-width:4.49px;"/>
                </g>
                <g transform="matrix(1,0,0,0.799595,-16.9447,459.581)">
                    <path d="M648.646,487.036L648.646,422.264" style="fill:none;stroke:white;stroke-width:4.6px;"/>
                </g>
                <g transform="matrix(1,0,0,1,-13.8264,14.5712)">
                    <path d="M588.192,790.882L621.444,790.882L621.444,800.355L618.661,798.157L600.692,798.157L600.692,805.091L612.118,805.091L614.779,802.894L614.779,814.197L612.118,812L600.692,812L600.692,818.934L618.661,818.934L621.444,816.737L621.444,826.209L588.192,826.209L590.39,823.548L590.39,793.543L588.192,790.882Z" style="fill:white;fill-rule:nonzero;"/>
                </g>
            </g>
        </g>
    </g>
</svg>
