<?xml version="1.0" encoding="UTF-8" standalone="no"?>
<!DOCTYPE svg PUBLIC "-//W3C//DTD SVG 1.1//EN" "http://www.w3.org/Graphics/SVG/1.1/DTD/svg11.dtd">
<svg width="100%" height="100%" viewBox="0 0 174 137" version="1.1" xmlns="http://www.w3.org/2000/svg" xmlns:xlink="http://www.w3.org/1999/xlink" xml:space="preserve" xmlns:serif="http://www.serif.com/" style="fill-rule:evenodd;clip-rule:evenodd;stroke-linejoin:round;stroke-miterlimit:2;">
    <g transform="matrix(1,0,0,1,-1518.11,-1226.05)">
        <g transform="matrix(1,0,0,1,-12.4961,23.0108)">
            <path d="M1622.01,1210.84C1626.59,1210.99 1631.28,1211.36 1636.04,1211.87L1642.31,1203.04C1655.51,1204.92 1667.18,1208.32 1676.2,1214.38C1676.2,1214.38 1704.43,1236.03 1703.81,1316.03C1693.06,1324.51 1680.92,1332.77 1659.25,1339.56L1650.15,1323.88L1652.29,1323.19L1651.45,1318.4L1655.23,1322.24L1656.58,1321.8L1656.76,1315L1660.39,1320.56L1663.79,1319.46L1661.42,1313.36L1667.71,1317.62C1668.39,1317.07 1669.04,1316.51 1669.66,1315.96L1665.93,1309.79L1672.79,1312.88C1673.33,1312.29 1673.83,1311.7 1674.31,1311.12L1668.86,1305.77L1677.08,1307.19C1677.31,1306.81 1677.52,1306.43 1677.73,1306.06L1672.61,1301.04L1679.43,1302.22C1679.48,1302.08 1679.53,1301.94 1679.57,1301.8L1675.88,1295.31L1680.58,1297.57C1680.68,1296.93 1680.74,1296.31 1680.79,1295.7L1677.75,1291.65L1680.86,1292.69C1680.84,1291.92 1680.79,1291.19 1680.73,1290.48L1679.22,1288.47L1680.56,1288.92C1680.21,1285.99 1679.71,1283.65 1680,1282.09C1679.74,1283.38 1679.41,1284.65 1679.02,1285.9L1680.11,1287.63L1678.65,1287.01C1678.51,1287.42 1678.36,1287.83 1678.2,1288.23L1680.19,1291.38L1677.39,1290.19C1677.18,1290.64 1676.97,1291.08 1676.75,1291.53L1679.7,1296.19L1675.26,1294.31C1674.99,1294.77 1674.71,1295.22 1674.43,1295.68L1677.75,1300.93L1672.41,1298.66C1671.89,1299.37 1671.35,1300.08 1670.78,1300.8L1675.5,1306.1L1667.85,1304.23C1667.5,1304.62 1667.15,1305 1666.79,1305.38L1671.06,1310.17L1664.12,1308.48L1666.65,1315.06L1660.89,1311.12C1660.48,1311.5 1660.06,1311.87 1659.63,1312.25L1662,1318.4L1656.17,1314.42C1655.75,1314.66 1655.32,1314.9 1654.89,1315.14L1655.38,1321.09L1651.8,1316.72C1643.39,1320.79 1632.89,1323.73 1617.21,1323.88C1596.57,1323.68 1584.9,1318.65 1575.17,1312.58L1570.15,1316.03L1584.27,1323.88L1575.17,1339.56C1553.5,1332.77 1541.36,1324.51 1530.61,1316.03C1529.99,1236.03 1558.22,1214.38 1558.22,1214.38C1567.24,1208.32 1578.91,1204.92 1592.11,1203.04L1598.38,1211.87C1602.88,1211.39 1607.32,1211.03 1611.67,1210.86L1613.2,1214.38L1619.58,1224.59L1616.01,1230.96L1621.23,1241.16L1619.58,1229.43L1624.8,1221.91L1617.21,1214.38L1622.01,1210.84ZM1588.77,1259.68C1579.73,1259.68 1572.39,1267.89 1572.39,1277.99C1572.39,1288.1 1579.73,1296.31 1588.77,1296.31C1597.82,1296.31 1605.16,1288.1 1605.16,1277.99C1605.16,1267.89 1597.82,1259.68 1588.77,1259.68ZM1645.64,1259.68L1629.26,1277.99C1623.72,1286.45 1636.6,1296.31 1645.64,1296.31C1654.69,1296.31 1662.03,1288.1 1662.03,1277.99C1662.03,1267.89 1653.33,1254.92 1645.64,1259.68ZM1617.88,1274.12C1618.02,1274.57 1622.67,1273.86 1626.68,1271.7C1632.11,1268.77 1638.5,1253.84 1645.72,1250.5C1655.11,1246.15 1665.1,1254.18 1667.85,1259.68C1664.48,1250.74 1647.87,1235.69 1638.52,1252.9C1629.17,1270.11 1617.88,1274.12 1617.88,1274.12Z" style="fill:white;"/>
        </g>
    </g>
</svg>
