<?xml version="1.0" encoding="UTF-8" standalone="no"?>
<!DOCTYPE svg PUBLIC "-//W3C//DTD SVG 1.1//EN" "http://www.w3.org/Graphics/SVG/1.1/DTD/svg11.dtd">
<svg width="100%" height="100%" viewBox="0 0 2124 248" version="1.1" xmlns="http://www.w3.org/2000/svg" xmlns:xlink="http://www.w3.org/1999/xlink" xml:space="preserve" xmlns:serif="http://www.serif.com/" style="fill-rule:evenodd;clip-rule:evenodd;stroke-linejoin:round;stroke-miterlimit:2;">
    <g transform="matrix(1,0,0,1,-419.618,-1726.93)">
        <path d="M450.858,1726.93L2510.93,1726.93L2510.93,1974.54L450.858,1974.54L450.858,1726.93ZM2528.3,1726.93L2543.35,1726.93L2543.35,1974.54L2528.3,1974.54L2528.3,1726.93ZM433.496,1974.54L419.618,1974.54L419.618,1726.93L433.496,1726.93L433.496,1974.54ZM615.999,1899.21C614.133,1900.04 612.682,1900.66 610.194,1900.66C605.011,1900.66 602.73,1897.76 602.73,1886.56L602.73,1837.41C602.73,1815.43 592.173,1808.62 572.062,1808.62C545.728,1808.62 533.926,1821.03 533.926,1833.27C533.926,1840.11 537.86,1844.26 544.278,1844.26C550.49,1844.26 553.803,1840.52 553.803,1834.72C553.803,1827.46 547.591,1827.46 547.591,1823.93C547.591,1820.62 556.292,1815.85 566.46,1815.85C580.777,1815.85 585.341,1823.52 585.341,1836.79L585.341,1848.82C548.206,1854.83 528.535,1870.18 528.535,1889.26C528.535,1903.35 539.715,1909.97 554.222,1909.97C567.085,1909.97 576.213,1904.38 585.341,1896.52C586.169,1908.52 591.552,1909.76 598.59,1909.76C608.95,1909.76 614.34,1906.25 617.45,1904.39L615.999,1899.21ZM547.168,1884.28C547.168,1869.97 559.616,1860.85 585.341,1855.46L585.341,1889.67C579.325,1894.24 572.064,1898.8 563.35,1898.8C552.977,1898.8 547.168,1894.03 547.168,1884.28ZM1400.1,1791.17C1406.73,1791.17 1411.49,1786.2 1411.49,1779.99C1411.49,1773.36 1407.14,1768.39 1400.1,1768.39C1393.27,1768.39 1388.71,1773.36 1388.71,1779.99C1388.71,1786.2 1393.27,1791.17 1400.1,1791.17ZM1104.45,1890.5L1104.45,1838.24C1104.45,1818.33 1095.13,1808.41 1076.48,1808.41C1062.37,1808.41 1052.21,1813.78 1042.87,1824.76L1042.67,1824.76L1042.67,1809.44L1036.87,1809.44L1012.42,1813.59L1012.42,1819.78L1019.47,1819.78C1024.24,1819.78 1025.49,1821.44 1025.49,1828.7L1025.49,1890.5C1025.49,1900.04 1024.86,1901.7 1011.39,1901.7L1011.39,1907.69L1056.77,1907.69L1056.77,1901.7C1044.74,1901.7 1043.29,1900.87 1043.29,1890.92L1043.29,1833.06C1049.3,1824.97 1056.15,1818.33 1067.77,1818.33C1081.87,1818.33 1087.06,1828.29 1087.06,1840.52L1087.06,1890.92C1087.06,1900.66 1085.81,1901.7 1073.37,1901.7L1073.37,1907.69L1118.75,1907.69L1118.75,1901.7C1105.49,1901.7 1104.45,1900.04 1104.45,1890.5ZM1325.05,1909.97C1346,1910.38 1360.9,1898.38 1360.9,1879.93C1360.9,1863.75 1349.73,1856.49 1330.65,1849.86L1325.05,1847.99C1316.96,1845.09 1307,1839.49 1307,1829.74C1307,1820.82 1315.3,1814.81 1326.5,1814.81C1341.45,1814.81 1348.3,1825.38 1351.41,1838.87L1355.6,1838.86L1354.14,1808.41L1350.38,1808.41C1349.96,1809.65 1349.75,1812.14 1346.02,1812.14C1341.44,1812.12 1337.71,1808.41 1325.46,1808.41C1305.55,1808.41 1291.89,1818.96 1291.89,1836.58C1291.89,1850.69 1300.79,1856.91 1316.34,1863.13L1321.52,1865C1333.56,1869.77 1344.97,1873.7 1344.97,1886.36C1344.97,1897.35 1336.67,1903.36 1324.84,1903.36C1310.32,1903.36 1298.93,1894.03 1293.55,1874.12L1289.4,1874.12L1291.48,1908.31L1295.41,1908.31C1296.65,1905.84 1297.69,1904.39 1300.79,1904.39C1306.79,1904.39 1311.15,1909.76 1325.05,1909.97ZM1377.72,1907.69L1423.72,1907.69L1423.72,1901.7C1410.45,1901.7 1409.62,1900.25 1409.62,1890.51L1409.62,1809.44L1403.83,1809.44L1378.76,1813.59L1378.76,1819.78L1385.81,1819.78C1390.79,1819.78 1391.82,1821.44 1391.82,1828.7L1391.82,1890.5C1391.82,1900.04 1391.2,1901.7 1377.72,1901.7L1377.72,1907.69ZM948.763,1909.97C979.66,1909.97 993.946,1892.37 993.946,1858.98C993.946,1826.01 979.66,1808.2 948.97,1808.2C918.28,1808.2 903.787,1826.22 903.787,1859.19C903.787,1892.37 918.28,1909.97 948.763,1909.97ZM948.97,1903.36C931.339,1903.36 923.042,1887.81 923.042,1859.19C923.042,1830.57 931.339,1814.81 948.763,1814.81C966.394,1814.81 974.691,1830.36 974.691,1858.98C974.898,1887.6 967.016,1903.36 948.97,1903.36ZM800.288,1901.7C795.101,1901.7 791.365,1898.59 781.193,1884.9L753.42,1847.78L766.873,1833.06C775.796,1823.31 783.269,1816.67 795.101,1816.67L798.008,1816.67L798.008,1810.69L760.25,1810.69L760.25,1816.67L764.182,1816.67C769.153,1816.67 769.775,1820.62 763.147,1828.08L734.379,1859.81L734.379,1764.25L728.583,1764.25L703.514,1768.39L703.514,1774.59L710.563,1774.59C715.539,1774.59 716.783,1776.25 716.783,1783.51L716.783,1890.5C716.783,1900.04 715.954,1901.7 702.478,1901.7L702.478,1907.69L748.453,1907.69L748.453,1901.7C735.414,1901.7 734.379,1900.04 734.379,1890.5L734.379,1868.31L742.265,1859.81L766.123,1891.95C768.402,1895.27 770.267,1897.97 770.267,1899.42C770.267,1900.87 768.402,1901.7 765.294,1901.7L762.186,1901.7L762.186,1907.69L802.381,1907.69L802.381,1901.7L800.288,1901.7ZM1199.62,1910.18C1212.28,1910.18 1226.78,1907.28 1237.55,1900.87L1236.1,1896.51C1226.99,1899.42 1214.77,1901.7 1202.73,1901.7C1158.36,1901.7 1145.72,1869.97 1145.72,1846.96C1145.72,1811.29 1173.3,1779.15 1211.24,1779.15C1240.66,1779.15 1263.49,1797.41 1263.49,1826.63C1263.49,1845.92 1251.66,1866.87 1235.89,1866.87C1227.61,1866.87 1225.54,1861.69 1227.82,1853.81L1241.29,1803.43L1228.85,1803.43L1227.82,1805.9C1223.47,1803.22 1219.53,1802.6 1215.6,1802.6C1180.96,1802.6 1167.5,1841.78 1167.5,1858.58C1167.5,1869.35 1173.09,1874.73 1181.79,1874.73C1195.05,1874.73 1208.54,1863.97 1216.43,1847.17L1217.05,1847.58L1214.35,1856.5C1211.24,1866.87 1216.84,1874.73 1229.47,1874.73C1252.28,1874.73 1271.77,1853.18 1271.77,1826.22C1271.77,1794.92 1247.51,1770.05 1210.62,1770.05C1168.54,1770.05 1132.88,1801.36 1132.88,1847.38C1132.88,1887.59 1161.27,1910.18 1199.62,1910.18ZM1190.28,1866.25C1185.1,1866.25 1182.41,1862.52 1182.41,1856.29C1182.41,1843.43 1195.67,1807.97 1216.43,1807.97C1220.78,1807.97 1223.67,1809.42 1226.37,1811.08L1219.74,1831.2C1213.94,1849.04 1200.45,1866.25 1190.28,1866.25ZM866.23,1810.69L866.23,1816.67L874.729,1816.67C879.082,1816.67 880.533,1818.96 878.874,1823.73L855.677,1886.35L855.47,1886.35L833.101,1823.52C831.65,1819.37 832.272,1816.67 837.036,1816.67L844.078,1816.67L844.078,1810.69L800.552,1810.69L800.552,1816.67C810.089,1816.67 811.954,1818.13 815.064,1826.42L847.185,1909.37L840.319,1927.61C835.344,1941.09 832.649,1945.03 827.052,1945.03C825.188,1945.03 823.532,1944.41 823.532,1942.54C823.532,1939.85 826.43,1938.81 826.43,1934.04C826.43,1928.24 821.875,1925.12 817.113,1925.12C811.315,1925.12 806.553,1930.1 806.553,1936.74C806.553,1944.62 813.179,1951.43 824.153,1951.43C838.453,1951.43 842.391,1940.26 848.403,1924.71L886.131,1827.25C889.448,1818.75 890.899,1816.67 901.473,1816.67L901.473,1810.69L866.23,1810.69ZM684.226,1808.2C669.918,1808.2 662.651,1821.44 658.708,1828.91L658.501,1828.91L658.501,1809.44L652.704,1809.44L628.257,1813.59L628.257,1819.78L635.306,1819.78C640.074,1819.78 641.318,1821.44 641.318,1828.7L641.318,1890.5C641.318,1900.04 640.696,1901.7 627.22,1901.7L627.22,1907.69L674.693,1907.69L674.693,1901.7C660.16,1901.7 659.122,1900.25 659.122,1890.5L659.122,1844.88C660.783,1828.5 671.787,1815.64 679.463,1815.64C681.326,1815.64 682.155,1816.47 682.155,1817.5C682.155,1819.99 677.185,1821.86 677.185,1828.08C677.185,1833.47 680.705,1837.83 687.953,1837.83C696.236,1837.83 699.757,1832.43 699.757,1824.56C699.757,1814.4 694.166,1808.2 684.226,1808.2ZM1913,1899.21C1911.14,1900.04 1909.68,1900.66 1907.2,1900.66C1902.01,1900.66 1899.73,1897.76 1899.73,1886.56L1899.73,1837.41C1899.73,1815.43 1889.17,1808.62 1869.06,1808.62C1842.73,1808.62 1830.93,1821.03 1830.93,1833.27C1830.93,1840.11 1834.86,1844.26 1841.28,1844.26C1847.49,1844.26 1850.81,1840.52 1850.81,1834.72C1850.81,1827.46 1844.59,1827.46 1844.59,1823.93C1844.59,1820.62 1853.3,1815.85 1863.46,1815.85C1877.78,1815.85 1882.34,1823.52 1882.34,1836.79L1882.34,1848.82C1845.21,1854.83 1825.54,1870.18 1825.54,1889.26C1825.54,1903.35 1836.72,1909.97 1851.23,1909.97C1864.09,1909.97 1873.22,1904.38 1882.34,1896.52C1883.17,1908.52 1888.55,1909.76 1895.59,1909.76C1905.95,1909.76 1911.34,1906.25 1914.45,1904.39L1913,1899.21ZM1844.17,1884.28C1844.17,1869.97 1856.62,1860.85 1882.34,1855.46L1882.34,1889.67C1876.33,1894.24 1869.07,1898.8 1860.35,1898.8C1849.98,1898.8 1844.17,1894.03 1844.17,1884.28ZM2215.08,1909.97C2245.98,1909.97 2260.26,1892.37 2260.26,1858.98C2260.26,1826.01 2245.98,1808.2 2215.29,1808.2C2184.6,1808.2 2170.11,1826.22 2170.11,1859.19C2170.11,1892.37 2184.6,1909.97 2215.08,1909.97ZM2215.29,1903.36C2197.66,1903.36 2189.36,1887.81 2189.36,1859.19C2189.36,1830.57 2197.66,1814.81 2215.08,1814.81C2232.71,1814.81 2241.01,1830.36 2241.01,1858.98C2241.22,1887.6 2233.34,1903.36 2215.29,1903.36ZM1529.69,1808.41C1522.64,1808.41 1516.83,1811.92 1512.27,1817.92C1504.8,1811.3 1494.02,1808.41 1482.82,1808.41C1463.74,1808.41 1443.24,1817.3 1443.24,1841.15C1443.24,1856.09 1451.11,1864.8 1461.66,1869.35C1450.07,1875.14 1443.86,1882.2 1443.86,1889.67C1443.86,1896.3 1448.62,1902.72 1457.1,1905.41C1444.06,1910.39 1439.3,1916.82 1439.3,1925.94C1439.3,1944 1458.14,1951.64 1481.58,1951.64C1507.5,1951.64 1529.66,1942.13 1529.66,1918.27C1529.66,1901.27 1518.69,1891.96 1492.15,1891.96L1477.22,1891.96C1462.49,1891.96 1458.55,1887.39 1458.55,1883.24C1458.55,1878.26 1463.53,1874.31 1468.51,1871.62C1473.07,1872.65 1477.64,1873.07 1482.41,1873.07C1501.91,1873.07 1521.58,1864.8 1521.58,1840.94C1521.58,1833.27 1519.51,1827.05 1515.99,1822.28C1519.3,1817.71 1522.41,1815.85 1524.49,1815.85C1527.2,1815.85 1528.86,1817.51 1528.86,1819.16C1528.86,1820.62 1528.03,1821.65 1528.03,1824.35C1528.03,1828.08 1531.14,1831.4 1536.31,1831.4C1541.69,1831.4 1544.8,1827.46 1544.8,1821.65C1544.8,1813.78 1538.59,1808.41 1529.69,1808.41ZM1487.59,1907.07C1507.3,1907.07 1514.14,1912.05 1514.14,1922.63C1514.14,1937.36 1501.49,1945.24 1484.07,1945.24C1466.85,1945.24 1455.65,1937.15 1455.65,1924.29C1455.65,1918.48 1458.14,1911.01 1468.1,1907.07L1487.59,1907.07ZM1481.99,1866.46C1466.85,1866.46 1462.29,1855.88 1462.29,1841.36C1462.29,1825.39 1467.47,1815.22 1483.03,1815.22C1498.59,1815.22 1503.36,1825.39 1503.36,1839.91C1503.36,1856.71 1498.17,1866.46 1481.99,1866.46ZM2031.19,1909.55C2037.61,1909.55 2042.79,1904.38 2042.79,1897.96C2042.79,1891.74 2037.61,1886.36 2031.19,1886.36C2024.77,1886.36 2019.59,1891.74 2019.59,1897.96C2019.59,1904.38 2024.77,1909.55 2031.19,1909.55ZM1556.43,1907.69L1602.43,1907.69L1602.43,1901.7C1589.16,1901.7 1588.34,1900.25 1588.34,1890.51L1588.34,1809.44L1582.54,1809.44L1557.47,1813.59L1557.47,1819.78L1564.52,1819.78C1569.5,1819.78 1570.53,1821.44 1570.53,1828.7L1570.53,1890.5C1570.53,1900.04 1569.91,1901.7 1556.43,1901.7L1556.43,1907.69ZM1578.81,1791.17C1585.44,1791.17 1590.2,1786.2 1590.2,1779.99C1590.2,1773.36 1585.85,1768.39 1578.81,1768.39C1571.98,1768.39 1567.42,1773.36 1567.42,1779.99C1567.42,1786.2 1571.98,1791.17 1578.81,1791.17ZM1980.17,1810.69L1980.17,1816.67L1988.67,1816.67C1993.02,1816.67 1994.47,1818.96 1992.81,1823.73L1969.62,1886.35L1969.41,1886.35L1947.04,1823.52C1945.59,1819.37 1946.21,1816.67 1950.97,1816.67L1958.02,1816.67L1958.02,1810.69L1914.49,1810.69L1914.49,1816.67C1924.03,1816.67 1925.89,1818.13 1929,1826.42L1961.12,1909.37L1954.26,1927.61C1949.28,1941.09 1946.59,1945.03 1940.99,1945.03C1939.13,1945.03 1937.47,1944.41 1937.47,1942.54C1937.47,1939.85 1940.37,1938.81 1940.37,1934.04C1940.37,1928.24 1935.81,1925.12 1931.05,1925.12C1925.25,1925.12 1920.49,1930.1 1920.49,1936.74C1920.49,1944.62 1927.12,1951.43 1938.09,1951.43C1952.39,1951.43 1956.33,1940.26 1962.34,1924.71L2000.07,1827.25C2003.39,1818.75 2004.84,1816.67 2015.41,1816.67L2015.41,1810.69L1980.17,1810.69ZM1616.77,1907.69L1662.77,1907.69L1662.77,1901.7C1649.7,1901.7 1648.67,1900.04 1648.67,1890.5L1648.67,1764.25L1642.87,1764.25L1617.8,1768.39L1617.8,1774.59L1624.85,1774.59C1629.83,1774.59 1631.07,1776.25 1631.07,1783.51L1631.07,1890.5C1631.07,1900.04 1630.24,1901.7 1616.77,1901.7L1616.77,1907.69ZM2426.54,1890.5L2426.54,1838.24C2426.54,1817.92 2418.05,1808.41 2400.43,1808.41C2385.7,1808.41 2375.12,1814.82 2367.24,1825.18C2364.55,1815.23 2356.27,1808.41 2341.97,1808.41C2328.07,1808.41 2317.7,1814.4 2309.19,1824.35L2308.99,1824.35L2308.99,1809.44L2303.19,1809.44L2278.74,1813.59L2278.74,1819.78L2285.79,1819.78C2290.56,1819.78 2291.8,1821.44 2291.8,1828.7L2291.8,1890.5C2291.8,1900.04 2291.18,1901.7 2277.71,1901.7L2277.71,1907.69L2323.09,1907.69L2323.09,1901.7C2311.06,1901.7 2309.61,1900.87 2309.61,1890.92L2309.61,1832.85C2315.21,1824.97 2322.47,1818.33 2333.05,1818.33C2346.12,1818.33 2350.68,1827.87 2350.68,1840.52L2350.68,1890.92C2350.68,1900.66 2349.64,1901.7 2336.99,1901.7L2336.99,1907.69L2381.76,1907.69L2381.76,1901.7C2369.11,1901.7 2368.07,1900.04 2368.07,1890.5L2368.07,1833.47C2373.88,1825.18 2380.93,1818.33 2391.51,1818.33C2404.58,1818.33 2409.15,1827.87 2409.15,1840.52L2409.15,1890.92C2409.15,1900.66 2408.11,1901.7 2395.45,1901.7L2395.45,1907.69L2440.84,1907.69L2440.84,1901.7C2427.57,1901.7 2426.54,1900.25 2426.54,1890.5ZM2115.16,1909.97C2141.9,1909.97 2150.39,1893.2 2152.66,1886.15L2147.69,1883.25C2145,1889.26 2137.96,1901.7 2119.51,1901.7C2101.26,1901.7 2089.64,1889.47 2089.64,1857.74C2089.64,1824.56 2102.29,1814.81 2119.51,1814.81C2128.23,1814.81 2134.65,1817.5 2134.65,1821.24C2134.65,1824.56 2130.3,1825.8 2130.3,1832.43C2130.3,1838.24 2133.82,1842.6 2140.86,1842.6C2148.11,1842.6 2151.42,1837.83 2151.42,1830.98C2151.42,1816.67 2136.51,1808.41 2116.82,1808.41C2084.46,1808.41 2070.18,1830.78 2070.18,1860.02C2070.18,1890.3 2085.7,1909.97 2115.16,1909.97ZM1706.65,1907.69L1717.85,1907.69L1739.62,1837.2L1740.25,1837.2L1763.26,1907.69L1774.67,1907.69L1798.73,1827.04C1801.01,1818.75 1803.3,1816.67 1813.47,1816.67L1813.47,1810.69L1777.57,1810.69L1777.57,1816.67L1786.07,1816.67C1791.26,1816.67 1792.09,1818.95 1790.84,1823.93L1774.05,1888.23L1773.63,1888.23L1749.99,1812.35L1739,1812.35L1717.23,1888.23L1716.82,1888.23L1698.98,1823.52C1697.53,1818.75 1698.98,1816.67 1702.51,1816.67L1708.93,1816.67L1708.93,1810.69L1668.39,1810.69L1668.39,1816.67C1676.24,1816.67 1679.14,1817.71 1681.2,1824.97L1706.65,1907.69Z" style="fill:white;"/>
    </g>
</svg>
