<?xml version="1.0" encoding="UTF-8" standalone="no"?>
<!DOCTYPE svg PUBLIC "-//W3C//DTD SVG 1.1//EN" "http://www.w3.org/Graphics/SVG/1.1/DTD/svg11.dtd">
<svg width="100%" height="100%" viewBox="0 0 2124 248" version="1.1" xmlns="http://www.w3.org/2000/svg" xmlns:xlink="http://www.w3.org/1999/xlink" xml:space="preserve" xmlns:serif="http://www.serif.com/" style="fill-rule:evenodd;clip-rule:evenodd;stroke-linejoin:round;stroke-miterlimit:2;">
    <g transform="matrix(1,0,0,1,-419.618,-2187.04)">
        <g transform="matrix(1,0,0,1,0,460.11)">
            <path d="M450.813,1726.93L2510.89,1726.93L2510.89,1974.54L450.813,1974.54L450.813,1726.93ZM2528.25,1726.93L2543.35,1726.93L2543.35,1974.54L2528.25,1974.54L2528.25,1726.93ZM433.451,1974.54L419.618,1974.54L419.618,1726.93L433.451,1726.93L433.451,1974.54ZM1186.91,1808.76C1172.6,1808.76 1165.34,1822 1161.39,1829.47L1161.18,1829.47L1161.18,1810L1155.39,1810L1130.94,1814.15L1130.94,1820.34L1137.99,1820.34C1142.76,1820.34 1144,1822 1144,1829.26L1144,1891.06C1144,1900.6 1143.38,1902.26 1129.9,1902.26L1129.9,1908.25L1177.38,1908.25L1177.38,1902.26C1162.84,1902.26 1161.81,1900.81 1161.81,1891.06L1161.81,1845.43C1163.47,1829.05 1174.47,1816.19 1182.15,1816.19C1184.01,1816.19 1184.84,1817.02 1184.84,1818.06C1184.84,1820.55 1179.87,1822.42 1179.87,1828.64C1179.87,1834.03 1183.39,1838.38 1190.64,1838.38C1198.92,1838.38 1202.44,1832.99 1202.44,1825.11C1202.44,1814.95 1196.85,1808.76 1186.91,1808.76ZM1672.39,1908.25L1682.36,1908.25L1715.14,1825.73C1717.84,1819.3 1720.12,1817.23 1729.24,1817.23L1729.24,1811.25L1694.4,1811.25L1694.4,1817.23L1703.53,1817.23C1707.06,1817.23 1707.68,1820.34 1706.64,1823.45L1683.19,1888.55L1682.57,1888.55L1658.9,1823.66C1657.66,1820.13 1658.28,1817.23 1662.22,1817.23L1670.53,1817.23L1670.53,1811.25L1627.48,1811.25L1627.48,1817.23C1636.57,1817.23 1638.64,1818.89 1641.33,1825.73L1672.39,1908.25ZM1834.17,1908.25L1880.17,1908.25L1880.17,1902.26C1866.91,1902.26 1866.08,1900.81 1866.08,1891.06L1866.08,1810L1860.28,1810L1835.21,1814.15L1835.21,1820.34L1842.26,1820.34C1847.24,1820.34 1848.27,1822 1848.27,1829.26L1848.27,1891.06C1848.27,1900.6 1847.65,1902.26 1834.17,1902.26L1834.17,1908.25ZM1894.51,1908.25L1940.51,1908.25L1940.51,1902.26C1927.44,1902.26 1926.41,1900.6 1926.41,1891.06L1926.41,1764.81L1920.61,1764.81L1895.54,1768.95L1895.54,1775.14L1902.59,1775.14C1907.57,1775.14 1908.81,1776.81 1908.81,1784.06L1908.81,1891.06C1908.81,1900.6 1907.98,1902.26 1894.51,1902.26L1894.51,1908.25ZM1368.91,1811.25L1368.91,1817.23L1377.41,1817.23C1381.77,1817.23 1383.22,1819.51 1381.56,1824.28L1358.36,1886.9L1358.15,1886.9L1335.79,1824.08C1334.33,1819.93 1334.96,1817.23 1339.72,1817.23L1346.76,1817.23L1346.76,1811.25L1303.24,1811.25L1303.24,1817.23C1312.77,1817.23 1314.64,1818.68 1317.75,1826.98L1349.87,1909.92L1343,1928.17C1338.03,1941.65 1335.33,1945.59 1329.74,1945.59C1327.87,1945.59 1326.22,1944.97 1326.22,1943.1C1326.22,1940.4 1329.11,1939.37 1329.11,1934.6C1329.11,1928.79 1324.56,1925.68 1319.8,1925.68C1314,1925.68 1309.24,1930.66 1309.24,1937.3C1309.24,1945.17 1315.86,1951.99 1326.84,1951.99C1341.14,1951.99 1345.08,1940.82 1351.09,1925.27L1388.82,1827.81C1392.13,1819.31 1393.58,1817.23 1404.16,1817.23L1404.16,1811.25L1368.91,1811.25ZM1817.36,1858.7C1817.36,1835.7 1810.94,1808.96 1776.32,1808.96C1746.67,1808.96 1732.17,1828.43 1732.17,1860.77C1732.17,1892.09 1745.84,1910.53 1776.11,1910.53C1802.45,1910.53 1811.97,1896.66 1816.74,1882.55L1810.94,1880.06C1807.21,1891.06 1799.14,1902.26 1781.51,1902.26C1757.44,1902.26 1751.84,1882.76 1751.43,1860.56L1817.36,1860.56L1817.36,1858.7ZM1751.43,1853.95C1752.47,1829.06 1759.73,1815.37 1776.53,1815.37C1793.12,1815.37 1798.1,1829.06 1798.1,1853.95L1751.43,1853.95ZM1451.45,1910.53C1482.34,1910.53 1496.63,1892.93 1496.63,1859.54C1496.63,1826.56 1482.34,1808.76 1451.65,1808.76C1420.96,1808.76 1406.47,1826.77 1406.47,1859.75C1406.47,1892.93 1420.96,1910.53 1451.45,1910.53ZM1451.65,1903.92C1434.02,1903.92 1425.73,1888.36 1425.73,1859.75C1425.73,1831.13 1434.02,1815.37 1451.45,1815.37C1469.08,1815.37 1477.38,1830.92 1477.38,1859.54C1477.58,1888.16 1469.7,1903.92 1451.65,1903.92ZM1607.13,1891.06L1607.13,1838.8C1607.13,1818.89 1597.82,1808.96 1579.16,1808.96C1565.06,1808.96 1554.89,1814.34 1545.56,1825.32L1545.35,1825.32L1545.35,1810L1539.56,1810L1515.11,1814.15L1515.11,1820.34L1522.16,1820.34C1526.92,1820.34 1528.17,1822 1528.17,1829.26L1528.17,1891.06C1528.17,1900.6 1527.55,1902.26 1514.07,1902.26L1514.07,1908.25L1559.46,1908.25L1559.46,1902.26C1547.42,1902.26 1545.97,1901.43 1545.97,1891.48L1545.97,1833.62C1551.99,1825.53 1558.83,1818.89 1570.45,1818.89C1584.56,1818.89 1589.74,1828.85 1589.74,1841.08L1589.74,1891.48C1589.74,1901.22 1588.5,1902.26 1576.05,1902.26L1576.05,1908.25L1621.44,1908.25L1621.44,1902.26C1608.17,1902.26 1607.13,1900.6 1607.13,1891.06ZM1118.68,1899.77C1116.82,1900.6 1115.37,1901.22 1112.88,1901.22C1107.69,1901.22 1105.41,1898.32 1105.41,1887.12L1105.41,1837.97C1105.41,1815.99 1094.86,1809.17 1074.75,1809.17C1048.41,1809.17 1036.61,1821.59 1036.61,1833.82C1036.61,1840.67 1040.54,1844.81 1046.96,1844.81C1053.17,1844.81 1056.49,1841.08 1056.49,1835.27C1056.49,1828.02 1050.28,1828.02 1050.28,1824.49C1050.28,1821.17 1058.98,1816.4 1069.14,1816.4C1083.46,1816.4 1088.03,1824.08 1088.03,1837.35L1088.03,1849.38C1050.89,1855.39 1031.22,1870.74 1031.22,1889.82C1031.22,1903.91 1042.4,1910.53 1056.91,1910.53C1069.77,1910.53 1078.9,1904.94 1088.03,1897.08C1088.85,1909.08 1094.24,1910.32 1101.27,1910.32C1111.63,1910.32 1117.03,1906.8 1120.13,1904.94L1118.68,1899.77ZM1049.85,1884.84C1049.85,1870.53 1062.3,1861.4 1088.03,1856.01L1088.03,1890.23C1082.01,1894.79 1074.75,1899.36 1066.04,1899.36C1055.66,1899.36 1049.85,1894.59 1049.85,1884.84ZM1302.97,1902.26C1297.79,1902.26 1294.05,1899.15 1283.88,1885.46L1256.1,1848.34L1269.56,1833.62C1278.48,1823.87 1285.95,1817.23 1297.79,1817.23L1300.69,1817.23L1300.69,1811.25L1262.93,1811.25L1262.93,1817.23L1266.87,1817.23C1271.84,1817.23 1272.46,1821.17 1265.83,1828.64L1237.06,1860.37L1237.06,1764.81L1231.27,1764.81L1206.2,1768.95L1206.2,1775.14L1213.25,1775.14C1218.22,1775.14 1219.47,1776.81 1219.47,1784.07L1219.47,1891.06C1219.47,1900.6 1218.64,1902.26 1205.16,1902.26L1205.16,1908.25L1251.14,1908.25L1251.14,1902.26C1238.1,1902.26 1237.06,1900.6 1237.06,1891.06L1237.06,1868.87L1244.95,1860.37L1268.81,1892.51C1271.09,1895.83 1272.95,1898.53 1272.95,1899.98C1272.95,1901.43 1271.09,1902.26 1267.98,1902.26L1264.87,1902.26L1264.87,1908.25L1305.07,1908.25L1305.07,1902.26L1302.97,1902.26ZM1856.55,1791.73C1863.18,1791.73 1867.94,1786.76 1867.94,1780.55C1867.94,1773.92 1863.59,1768.95 1856.55,1768.95C1849.72,1768.95 1845.16,1773.92 1845.16,1780.55C1845.16,1786.76 1849.72,1791.73 1856.55,1791.73Z" style="fill:white;"/>
        </g>
    </g>
</svg>
