<?xml version="1.0" encoding="UTF-8" standalone="no"?>
<!DOCTYPE svg PUBLIC "-//W3C//DTD SVG 1.1//EN" "http://www.w3.org/Graphics/SVG/1.1/DTD/svg11.dtd">
<svg width="100%" height="100%" viewBox="0 0 1352 1081" version="1.1" xmlns="http://www.w3.org/2000/svg" xmlns:xlink="http://www.w3.org/1999/xlink" xml:space="preserve" xmlns:serif="http://www.serif.com/" style="fill-rule:evenodd;clip-rule:evenodd;stroke-linecap:round;stroke-linejoin:round;stroke-miterlimit:1.5;">
    <g id="Artboard1" transform="matrix(0.978398,0,0,0.900764,-806.201,-516.762)">
        <rect x="824.001" y="573.694" width="1381.09" height="1199.64" style="fill:none;"/>
        <clipPath id="_clip1">
            <rect x="824.001" y="573.694" width="1381.09" height="1199.64"/>
        </clipPath>
        <g clip-path="url(#_clip1)">
            <g transform="matrix(1.02208,0,0,1.11017,12.0852,-358.083)">
                <path d="M1470.38,869.044L1730.42,1005.71L1730.42,1279.05L1470.38,1415.72L1210.34,1279.05L1210.34,1005.71L1470.38,869.044Z" style="fill:none;stroke:white;stroke-width:1px;"/>
            </g>
            <g transform="matrix(7.41412,0,0,8.05312,-7678.28,-10068.9)">
                <path d="M1282.33,1389.07L1294.18,1407.02L1294.39,1407.09C1283.7,1420.37 1268.25,1429.66 1250.63,1432.37L1250.69,1432.13L1240.06,1410.88C1245.33,1410.83 1249.59,1406.53 1249.59,1401.25C1249.59,1395.94 1245.27,1391.62 1239.96,1391.62C1234.64,1391.62 1230.33,1395.94 1230.33,1401.25C1230.33,1406.53 1234.59,1410.83 1239.86,1410.88L1229.23,1432.13L1229.29,1432.37C1211.67,1429.66 1196.22,1420.37 1185.52,1407.09L1185.74,1407.02L1197.59,1389.07C1199.3,1390.66 1201.6,1391.62 1204.11,1391.62C1209.43,1391.62 1213.74,1387.31 1213.74,1381.99C1213.74,1376.68 1209.43,1372.36 1204.11,1372.36C1198.8,1372.36 1194.48,1376.68 1194.48,1381.99C1194.48,1383.9 1195.04,1385.68 1196,1387.18L1175.01,1388.44L1174.83,1388.61C1171.78,1380.77 1170.11,1372.24 1170.11,1363.33C1170.11,1354.41 1171.78,1345.89 1174.83,1338.05L1175.01,1338.22L1195.89,1339.47C1195,1340.93 1194.48,1342.65 1194.48,1344.49C1194.48,1349.8 1198.8,1354.12 1204.11,1354.12C1209.43,1354.12 1213.74,1349.8 1213.74,1344.49C1213.74,1339.17 1209.43,1334.86 1204.11,1334.86C1201.56,1334.86 1199.24,1335.85 1197.52,1337.47L1185.74,1319.64L1185.52,1319.57C1196.22,1306.29 1211.67,1296.99 1229.29,1294.29L1229.23,1294.53L1239.96,1315.98L1250.69,1294.53L1250.63,1294.29C1268.25,1296.99 1283.7,1306.29 1294.39,1319.57L1294.18,1319.64L1282.4,1337.47C1280.68,1335.85 1278.36,1334.86 1275.81,1334.86C1270.49,1334.86 1266.18,1339.17 1266.18,1344.49C1266.18,1349.8 1270.49,1354.12 1275.81,1354.12C1281.12,1354.12 1285.44,1349.8 1285.44,1344.49C1285.44,1342.65 1284.92,1340.93 1284.03,1339.47L1304.91,1338.22L1305.09,1338.05C1308.14,1345.89 1309.81,1354.41 1309.81,1363.33C1309.81,1372.24 1308.14,1380.77 1305.09,1388.61L1304.91,1388.44L1283.92,1387.18C1284.88,1385.68 1285.44,1383.9 1285.44,1381.99C1285.44,1376.68 1281.12,1372.36 1275.81,1372.36C1270.49,1372.36 1266.18,1376.68 1266.18,1381.99C1266.18,1387.31 1270.49,1391.62 1275.81,1391.62C1278.32,1391.62 1280.62,1390.66 1282.33,1389.07Z" style="fill:none;stroke:white;stroke-width:0.11px;"/>
            </g>
            <g transform="matrix(1.02208,0,0,1.11017,247.59,-906.822)">
                <circle cx="1239.96" cy="1363.33" r="69.854" style="fill:none;stroke:white;stroke-width:0.83px;"/>
            </g>
            <g transform="matrix(0.511039,0.961434,-0.885146,0.555085,2076.09,-1364.62)">
                <g transform="matrix(0.798278,0,0,0.798278,302.583,15.1728)">
                    <path d="M1422.18,1231.94L1500,886.328L1577.82,1231.94L1500,1387.58L1422.18,1231.94Z" style="fill:none;stroke:white;stroke-width:1.04px;"/>
                </g>
                <g transform="matrix(0.77162,0,0,0.77162,342.571,199.898)">
                    <circle cx="1500" cy="1026.04" r="65.257" style="fill:none;stroke:white;stroke-width:1.08px;"/>
                </g>
                <g transform="matrix(0.489149,0,0,0.489149,766.276,489.724)">
                    <circle cx="1500" cy="1026.04" r="65.257" style="fill:none;stroke:white;stroke-width:1.7px;"/>
                </g>
            </g>
            <g transform="matrix(-0.511039,0.961434,-0.885146,-0.555085,3609.21,300.63)">
                <g transform="matrix(0.798278,0,0,0.798278,302.583,15.1728)">
                    <path d="M1422.18,1231.94L1500,886.328L1577.82,1231.94L1500,1387.58L1422.18,1231.94Z" style="fill:none;stroke:white;stroke-width:1.04px;"/>
                </g>
                <g transform="matrix(0.77162,0,0,0.77162,342.571,199.898)">
                    <circle cx="1500" cy="1026.04" r="65.257" style="fill:none;stroke:white;stroke-width:1.08px;"/>
                </g>
                <g transform="matrix(0.489149,0,0,0.489149,766.276,489.724)">
                    <circle cx="1500" cy="1026.04" r="65.257" style="fill:none;stroke:white;stroke-width:1.7px;"/>
                </g>
            </g>
            <g transform="matrix(-0.511039,-0.961434,0.885146,-0.555085,953.766,3184.94)">
                <g transform="matrix(0.798278,0,0,0.798278,302.583,15.1728)">
                    <path d="M1422.18,1231.94L1500,886.328L1577.82,1231.94L1500,1387.58L1422.18,1231.94Z" style="fill:none;stroke:white;stroke-width:1.04px;"/>
                </g>
                <g transform="matrix(0.77162,0,0,0.77162,342.571,199.898)">
                    <circle cx="1500" cy="1026.04" r="65.257" style="fill:none;stroke:white;stroke-width:1.08px;"/>
                </g>
                <g transform="matrix(0.489149,0,0,0.489149,766.276,489.724)">
                    <circle cx="1500" cy="1026.04" r="65.257" style="fill:none;stroke:white;stroke-width:1.7px;"/>
                </g>
            </g>
            <g transform="matrix(0.511039,-0.961434,0.885146,0.555085,-579.352,1519.68)">
                <g transform="matrix(0.798278,0,0,0.798278,302.583,15.1728)">
                    <path d="M1422.18,1231.94L1500,886.328L1577.82,1231.94L1500,1387.58L1422.18,1231.94Z" style="fill:none;stroke:white;stroke-width:1.04px;"/>
                </g>
                <g transform="matrix(0.77162,0,0,0.77162,342.571,199.898)">
                    <circle cx="1500" cy="1026.04" r="65.257" style="fill:none;stroke:white;stroke-width:1.08px;"/>
                </g>
                <g transform="matrix(0.489149,0,0,0.489149,766.276,489.724)">
                    <circle cx="1500" cy="1026.04" r="65.257" style="fill:none;stroke:white;stroke-width:1.7px;"/>
                </g>
            </g>
        </g>
    </g>
    <g transform="matrix(-1,3.88578e-16,-3.88578e-16,-1,2176,1803.07)">
        <g transform="matrix(0.798278,0,0,0.798278,302.583,15.1728)">
            <path d="M1422.18,1231.94L1500,886.328L1577.82,1231.94L1500,1387.58L1422.18,1231.94Z" style="fill:none;stroke:white;stroke-width:1.04px;"/>
        </g>
        <g transform="matrix(0.77162,0,0,0.77162,342.571,199.898)">
            <circle cx="1500" cy="1026.04" r="65.257" style="fill:none;stroke:white;stroke-width:1.08px;"/>
        </g>
        <g transform="matrix(0.489149,0,0,0.489149,766.276,489.724)">
            <circle cx="1500" cy="1026.04" r="65.257" style="fill:none;stroke:white;stroke-width:1.7px;"/>
        </g>
    </g>
</svg>
