<?xml version="1.0" encoding="UTF-8" standalone="no"?>
<!DOCTYPE svg PUBLIC "-//W3C//DTD SVG 1.1//EN" "http://www.w3.org/Graphics/SVG/1.1/DTD/svg11.dtd">
<svg width="100%" height="100%" viewBox="0 0 530 99" version="1.1" xmlns="http://www.w3.org/2000/svg" xmlns:xlink="http://www.w3.org/1999/xlink" xml:space="preserve" xmlns:serif="http://www.serif.com/" style="fill-rule:evenodd;clip-rule:evenodd;stroke-linecap:round;stroke-linejoin:round;stroke-miterlimit:1.5;">
    <g transform="matrix(1,0,0,1,-63.8918,-715.262)">
        <g transform="matrix(1,0,0,1,0,585.841)">
            <g transform="matrix(2.22731e-17,-0.363747,0.330152,2.0216e-17,179.009,264.755)">
                <path d="M220.044,173.557L236.309,116.81L252.574,173.557L236.309,230.305L220.044,173.557Z" style="fill:white;"/>
            </g>
            <g transform="matrix(2.22731e-17,-0.363747,0.330152,2.0216e-17,25.3266,264.755)">
                <path d="M220.044,173.557L236.309,116.81L252.574,173.557L236.309,230.305L220.044,173.557Z" style="fill:white;"/>
            </g>
            <g transform="matrix(6.12323e-17,-1,0.907643,5.55771e-17,78.7806,415.107)">
                <path d="M220.044,173.557L236.309,116.81L252.574,173.557L236.309,230.305L220.044,173.557Z" style="fill:none;stroke:white;stroke-width:3.01px;"/>
            </g>
            <g transform="matrix(1,0,0,1,1.11037,-6.54414)">
                <path d="M351.124,178.798C351.124,178.798 270.013,175.121 236.309,157.271C236.309,157.271 150.209,184.952 127.655,184.952" style="fill:none;stroke:white;stroke-width:2.87px;"/>
            </g>
            <path d="M319.61,161.058C319.61,161.058 214.306,143.998 240.5,133.588C266.694,123.179 114.018,173.781 114.018,173.781" style="fill:none;stroke:white;stroke-width:2.87px;"/>
            <path d="M319.61,160.354L344.514,152.979L375.049,176.547" style="fill:none;stroke:white;stroke-width:2.87px;"/>
            <path d="M342.2,164.763C342.2,164.763 367.878,160.817 372.736,143.93" style="fill:none;stroke:white;stroke-width:2.87px;"/>
            <path d="M372.736,143.93C372.736,143.93 375.979,178.979 442.046,178.798" style="fill:none;stroke:white;stroke-width:2.87px;"/>
            <g transform="matrix(1,0,0,-1,0,357.598)">
                <path d="M372.736,143.93C372.736,143.93 375.979,178.979 442.046,178.798" style="fill:none;stroke:white;stroke-width:2.87px;"/>
            </g>
            <path d="M372.736,143.93C372.736,143.93 375.979,178.979 442.046,178.798" style="fill:none;stroke:white;stroke-width:2.87px;"/>
            <g transform="matrix(1,0,0,-1,0,357.598)">
                <path d="M372.736,143.93C372.736,143.93 375.979,178.979 442.046,178.798" style="fill:none;stroke:white;stroke-width:2.87px;"/>
            </g>
            <g transform="matrix(1,0,0,-1,1.11037,363.75)">
                <path d="M351.124,178.798C351.124,178.798 270.013,175.121 236.309,157.271C236.309,157.271 150.209,184.952 127.655,184.952" style="fill:none;stroke:white;stroke-width:2.87px;"/>
            </g>
            <g transform="matrix(1,0,0,-1,0,357.206)">
                <path d="M319.61,161.058C319.61,161.058 214.306,143.998 240.5,133.588C266.694,123.179 114.018,173.781 114.018,173.781" style="fill:none;stroke:white;stroke-width:2.87px;"/>
            </g>
            <g transform="matrix(1,0,0,-1,0,357.206)">
                <path d="M319.61,160.354L344.514,152.979L375.049,176.547" style="fill:none;stroke:white;stroke-width:2.87px;"/>
            </g>
            <g transform="matrix(1,0,0,-1,0,357.206)">
                <path d="M342.2,164.763C342.2,164.763 367.878,160.817 372.736,143.93" style="fill:none;stroke:white;stroke-width:2.87px;"/>
            </g>
            <g transform="matrix(1.64686,0,0,1,-369.054,0)">
                <path d="M461.174,168.304L583.406,168.304" style="fill:none;stroke:white;stroke-width:2.11px;"/>
            </g>
            <g transform="matrix(1.64686,0,0,1,-369.054,20.9898)">
                <path d="M461.174,168.304L583.406,168.304" style="fill:none;stroke:white;stroke-width:2.11px;"/>
            </g>
            <path d="M192.726,147.917L192.726,130.857C182.122,141.469 163.524,150.703 130.557,157.459" style="fill:none;stroke:white;stroke-width:2.87px;"/>
            <g transform="matrix(1,0,0,-1,0,357.827)">
                <path d="M192.726,147.917L192.726,130.857C182.122,141.469 163.524,150.703 130.557,157.459" style="fill:none;stroke:white;stroke-width:2.87px;"/>
            </g>
        </g>
    </g>
</svg>
