<?xml version="1.0" encoding="UTF-8" standalone="no"?>
<!DOCTYPE svg PUBLIC "-//W3C//DTD SVG 1.1//EN" "http://www.w3.org/Graphics/SVG/1.1/DTD/svg11.dtd">
<svg width="100%" height="100%" viewBox="0 0 521 12" version="1.1" xmlns="http://www.w3.org/2000/svg" xmlns:xlink="http://www.w3.org/1999/xlink" xml:space="preserve" xmlns:serif="http://www.serif.com/" style="fill-rule:evenodd;clip-rule:evenodd;stroke-linecap:round;stroke-linejoin:round;stroke-miterlimit:1.5;">
    <g transform="matrix(1,0,0,1,-217.578,-1257.77)">
        <g transform="matrix(1,0,0,1,0,764.306)">
            <g transform="matrix(1,0,0,1,144.72,269.145)">
                <g transform="matrix(2.22731e-17,-0.363747,0.330152,2.0216e-17,34.2922,316.196)">
                    <path d="M220.044,173.557L236.309,116.81L252.574,173.557L236.309,230.305L220.044,173.557Z" style="fill:white;"/>
                </g>
                <g transform="matrix(2.22731e-17,-0.363747,0.330152,2.0216e-17,515.698,316.196)">
                    <path d="M220.044,173.557L236.309,116.81L252.574,173.557L236.309,230.305L220.044,173.557Z" style="fill:white;"/>
                </g>
                <g transform="matrix(4.20658,0,0,1,-1862.41,61.9351)">
                    <path d="M461.174,168.304L583.406,168.304" style="fill:none;stroke:white;stroke-width:0.94px;"/>
                </g>
            </g>
        </g>
    </g>
</svg>
