<?xml version="1.0" encoding="UTF-8" standalone="no"?><!DOCTYPE svg PUBLIC "-//W3C//DTD SVG 1.1//EN" "http://www.w3.org/Graphics/SVG/1.1/DTD/svg11.dtd"><svg width="100%" height="100%" viewBox="0 0 179 62" version="1.1" xmlns="http://www.w3.org/2000/svg" xmlns:xlink="http://www.w3.org/1999/xlink" xml:space="preserve" xmlns:serif="http://www.serif.com/" style="fill-rule:evenodd;clip-rule:evenodd;stroke-linejoin:round;stroke-miterlimit:2;"><g><path d="M88.839,0l9.078,28.819l-9.078,28.82l-9.077,-28.82l9.077,-28.819Zm0,7.251l6.794,21.568c-0,0 -6.794,21.569 -6.794,21.569c0,0 -6.793,-21.569 -6.793,-21.569l6.793,-21.568Z" style="fill:#fff;"/><path d="M127.531,28.877l-31.981,7.455l-6.711,21.307l-6.71,-21.307l-32.228,-7.513c10.46,0.904 20.92,0.053 31.38,-4.822l7.558,-23.997l7.416,23.543c10.398,4.896 20.798,7.724 31.197,5.352l0.079,-0.018Zm-17.626,1.872l-14.849,3.462c-0.75,0.175 -1.352,0.732 -1.583,1.467l-4.634,14.71c0,0 -4.633,-14.71 -4.633,-14.71c-0.231,-0.735 -0.833,-1.292 -1.583,-1.467l-15.614,-3.64c5.065,-0.784 10.128,-2.239 15.192,-4.6c0.554,-0.258 0.974,-0.737 1.158,-1.319l5.48,-17.401c0,-0 5.338,16.946 5.338,16.946c0.183,0.58 0.599,1.057 1.15,1.316c4.857,2.288 9.718,4.126 14.578,5.236Z" style="fill:#fff;"/><g><path d="M77.877,19.742c-12.379,2.304 -23.215,10.521 -38.939,0c-8.7,-7.305 -22.587,-9.423 -38.938,-9.077c12.979,-5.837 25.959,-13.374 38.938,-9.077c13.587,5.88 27.237,16.813 38.939,18.154Zm-8.522,0.001c-2.171,0.669 -4.339,1.354 -6.54,1.913c-6.755,1.715 -13.854,2.133 -22.567,-3.658c-7.257,-6.04 -17.928,-8.742 -30.607,-9.388c3.497,-1.595 6.994,-3.089 10.492,-4.209c6.009,-1.923 12.016,-2.736 18.025,-0.777c8.083,3.511 16.179,8.811 23.872,12.778c2.484,1.281 4.931,2.424 7.325,3.341l0,-0Z" style="fill:#fff;"/><path d="M58.333,18.396c-5.695,1.224 -8.775,3.669 -16.01,-1.921c-4.003,-3.882 -11.883,-8.027 -19.406,-7.844c5.972,-3.101 10.557,-4.118 16.53,-1.835c6.251,3.124 13.502,10.887 18.886,11.6Z" style="fill:#fff;"/><path d="M58.333,18.396c-5.695,1.224 -8.775,3.669 -16.01,-1.921c-4.003,-3.882 -11.883,-8.027 -19.406,-7.844c5.972,-3.101 10.557,-4.118 16.53,-1.835c6.251,3.124 13.502,10.887 18.886,11.6Zm-6.819,-0.636c-2.168,0.164 -4.487,-0.426 -7.765,-2.937c-2.761,-2.643 -7.172,-5.378 -12.089,-6.976c2.201,-0.262 4.419,0.009 6.906,0.944c3.645,1.847 7.614,5.293 11.346,7.899c0.538,0.376 1.072,0.733 1.601,1.07l0.001,-0Z" style="fill:#fff;"/></g><g><path d="M81.944,40.278c-4.741,5.078 -6.86,12.276 -17.289,12.756c-6.256,-0.393 -13.116,3.216 -20.262,8.726c3.851,-6.844 7.144,-14.442 14.315,-16.787c7.959,-1.84 17.601,-1.457 23.236,-4.695Zm-6.166,4.349c-0.213,0.275 -0.429,0.547 -0.649,0.816c-2.277,2.779 -5.09,5.132 -10.46,5.41c-4.363,-0.241 -9.026,1.263 -13.86,3.977c0.406,-0.643 0.826,-1.271 1.262,-1.875c1.906,-2.64 4.133,-4.841 7.22,-5.88c4.709,-1.077 9.998,-1.372 14.678,-2.125c0.614,-0.099 1.217,-0.206 1.809,-0.322l0,-0.001Z" style="fill:#fff;"/><path d="M72.826,46.082c-2.128,2.41 -2.694,4.504 -7.738,4.392c-3.049,-0.411 -7.906,0.329 -11.186,2.876c1.635,-3.334 3.338,-5.288 6.738,-6.231c3.799,-0.661 9.562,0.411 12.186,-1.037Z" style="fill:#fff;"/><path d="M72.826,46.082c-2.128,2.41 -2.694,4.504 -7.738,4.392c-3.049,-0.411 -7.906,0.329 -11.186,2.876c1.635,-3.334 3.338,-5.288 6.738,-6.231c3.799,-0.661 9.562,0.411 12.186,-1.037Z" style="fill:#fff;"/></g><g><path d="M95.139,40.278c4.741,5.078 6.861,12.276 17.289,12.756c6.256,-0.393 13.116,3.216 20.263,8.726c-3.851,-6.844 -7.145,-14.442 -14.316,-16.787c-7.958,-1.84 -17.601,-1.457 -23.236,-4.695Zm6.166,4.35c0.592,0.116 1.196,0.223 1.809,0.322c4.679,0.753 9.966,1.048 14.67,2.122c3.094,1.041 5.321,3.243 7.228,5.883c0.437,0.605 0.856,1.232 1.264,1.876c-4.835,-2.715 -9.499,-4.219 -13.862,-3.978c-5.369,-0.278 -8.182,-2.631 -10.46,-5.41c-0.22,-0.269 -0.436,-0.541 -0.649,-0.816l0,0.001Z" style="fill:#fff;"/><path d="M104.257,46.082c2.128,2.41 2.695,4.504 7.738,4.392c3.049,-0.411 7.906,0.329 11.187,2.876c-1.636,-3.334 -3.339,-5.288 -6.739,-6.231c-3.799,-0.661 -9.561,0.411 -12.186,-1.037Z" style="fill:#fff;"/><path d="M104.257,46.082c2.128,2.41 2.695,4.504 7.738,4.392c3.049,-0.411 7.906,0.329 11.187,2.876c-1.636,-3.334 -3.339,-5.288 -6.739,-6.231c-3.799,-0.661 -9.561,0.411 -12.186,-1.037Z" style="fill:#fff;"/></g><g><path d="M100.694,19.742c12.379,2.304 23.215,10.521 38.939,0c8.7,-7.305 22.587,-9.423 38.938,-9.077c-12.979,-5.837 -25.959,-13.374 -38.938,-9.077c-13.587,5.88 -27.237,16.813 -38.939,18.154Zm8.522,0.001c2.394,-0.917 4.841,-2.06 7.325,-3.341c7.692,-3.967 15.788,-9.266 23.865,-12.775c6.013,-1.963 12.021,-1.149 18.032,0.774c3.498,1.12 6.995,2.614 10.492,4.209c-12.681,0.646 -23.353,3.349 -30.608,9.389c-8.711,5.79 -15.81,5.372 -22.566,3.657c-2.201,-0.559 -4.369,-1.244 -6.54,-1.913l0,-0Z" style="fill:#fff;"/><path d="M120.238,18.396c5.695,1.224 8.775,3.669 16.01,-1.921c4.003,-3.882 11.883,-8.027 19.406,-7.844c-5.972,-3.101 -10.557,-4.118 -16.53,-1.835c-6.251,3.124 -13.502,10.887 -18.886,11.6Z" style="fill:#fff;"/><path d="M120.238,18.396c5.695,1.224 8.775,3.669 16.01,-1.921c4.003,-3.882 11.883,-8.027 19.406,-7.844c-5.972,-3.101 -10.557,-4.118 -16.53,-1.835c-6.251,3.124 -13.502,10.887 -18.886,11.6Zm6.82,-0.636c0.529,-0.336 1.063,-0.694 1.601,-1.07c3.731,-2.605 7.699,-6.05 11.339,-7.895c2.493,-0.939 4.711,-1.21 6.915,-0.948c-4.918,1.598 -9.33,4.333 -12.09,6.976c-3.278,2.511 -5.598,3.102 -7.767,2.937l0.002,-0Z" style="fill:#fff;"/></g></g></svg>